solid OpenROVNiskinRear
facet normal 0.9702643026941036 -0.24204789385062853 0.0
  outer loop
    vertex 98.05730284001379 -64.01893866921816 -0.8440287277141301
    vertex 97.72698594676889 -65.34303484288753 9.155971272285852
    vertex 97.72698594676889 -65.34303484288753 -0.8440287277141301
  endloop
endfacet
facet normal 0.9702643026941036 -0.24204789385062853 0.0
  outer loop
    vertex 97.72698594676889 -65.34303484288753 9.155971272285852
    vertex 98.05730284001379 -64.01893866921816 -0.8440287277141301
    vertex 98.05730284001379 -64.01893866921816 9.155971272285852
  endloop
endfacet
facet normal 0.24204789385064798 -0.9702643026940988 0.0
  outer loop
    vertex 92.1368160030194 -70.93320478663708 9.155971272285852
    vertex 90.81271982935006 -71.263521679882 -0.8440287277141301
    vertex 92.1368160030194 -70.93320478663708 -0.8440287277141301
  endloop
endfacet
facet normal 0.24204789385064798 -0.9702643026940988 0.0
  outer loop
    vertex 90.81271982935006 -71.263521679882 -0.8440287277141301
    vertex 92.1368160030194 -70.93320478663708 9.155971272285852
    vertex 90.81271982935006 -71.263521679882 9.155971272285852
  endloop
endfacet
facet normal -0.38852026653594524 -0.9214401784656658 0.0
  outer loop
    vertex 58.04664605926999 -70.93320478663699 9.155971272285852
    vertex 56.789178984387554 -70.40300059703131 -0.8440287277141301
    vertex 58.04664605926999 -70.93320478663699 -0.8440287277141301
  endloop
endfacet
facet normal -0.38852026653594524 -0.9214401784656658 0.0
  outer loop
    vertex 56.789178984387554 -70.40300059703131 -0.8440287277141301
    vertex 58.04664605926999 -70.93320478663699 9.155971272285852
    vertex 56.789178984387554 -70.40300059703131 9.155971272285852
  endloop
endfacet
facet normal 0.850650808352044 -0.5257311121191274 0.0
  outer loop
    vertex 97.19678175716321 -66.60050191776999 -0.8440287277141301
    vertex 96.47932925272396 -67.76136445526645 9.155971272285852
    vertex 96.47932925272396 -67.76136445526645 -0.8440287277141301
  endloop
endfacet
facet normal 0.850650808352044 -0.5257311121191274 0.0
  outer loop
    vertex 96.47932925272396 -67.76136445526645 9.155971272285852
    vertex 97.19678175716321 -66.60050191776999 -0.8440287277141301
    vertex 97.19678175716321 -66.60050191776999 9.155971272285852
  endloop
endfacet
facet normal 0.9214401784656672 -0.38852026653594235 0.0
  outer loop
    vertex 97.72698594676889 -65.34303484288753 -0.8440287277141301
    vertex 97.19678175716321 -66.60050191776999 9.155971272285852
    vertex 97.19678175716321 -66.60050191776999 -0.8440287277141301
  endloop
endfacet
facet normal 0.9214401784656672 -0.38852026653594235 0.0
  outer loop
    vertex 97.19678175716321 -66.60050191776999 9.155971272285852
    vertex 97.72698594676889 -65.34303484288753 -0.8440287277141301
    vertex 97.72698594676889 -65.34303484288753 9.155971272285852
  endloop
endfacet
facet normal -0.5257311121191309 -0.8506508083520418 0.0
  outer loop
    vertex 56.789178984387554 -70.40300059703131 9.155971272285852
    vertex 55.628316446891105 -69.68554809259207 -0.8440287277141301
    vertex 56.789178984387554 -70.40300059703131 -0.8440287277141301
  endloop
endfacet
facet normal -0.5257311121191309 -0.8506508083520418 0.0
  outer loop
    vertex 55.628316446891105 -69.68554809259207 -0.8440287277141301
    vertex 56.789178984387554 -70.40300059703131 9.155971272285852
    vertex 55.628316446891105 -69.68554809259207 9.155971272285852
  endloop
endfacet
facet normal 0.08980559531590943 -0.9959593139531129 0.0
  outer loop
    vertex 90.81271982935006 -71.263521679882 9.155971272285852
    vertex 90.43090533885263 -71.29794987101289 -0.8440287277141301
    vertex 90.81271982935006 -71.263521679882 -0.8440287277141301
  endloop
endfacet
facet normal 0.08980559531590943 -0.9959593139531129 0.0
  outer loop
    vertex 90.43090533885263 -71.29794987101289 -0.8440287277141301
    vertex 90.81271982935006 -71.263521679882 9.155971272285852
    vertex 90.43090533885263 -71.29794987101289 9.155971272285852
  endloop
endfacet
facet normal -0.24204789385063047 -0.9702643026941031 0.0
  outer loop
    vertex 59.37074223293935 -71.26352167988189 9.155971272285852
    vertex 58.04664605926999 -70.93320478663699 -0.8440287277141301
    vertex 59.37074223293935 -71.26352167988189 -0.8440287277141301
  endloop
endfacet
facet normal -0.24204789385063047 -0.9702643026941031 0.0
  outer loop
    vertex 58.04664605926999 -70.93320478663699 -0.8440287277141301
    vertex 59.37074223293935 -71.26352167988189 9.155971272285852
    vertex 58.04664605926999 -70.93320478663699 9.155971272285852
  endloop
endfacet
facet normal -0.9959593139531124 -0.08980559531591423 0.0
  outer loop
    vertex 52.091731031144725 -63.63712417872099 9.155971272285852
    vertex 52.12615922227559 -64.01893866921816 -0.8440287277141301
    vertex 52.12615922227559 -64.01893866921816 9.155971272285852
  endloop
endfacet
facet normal -0.9959593139531124 -0.08980559531591423 0.0
  outer loop
    vertex 52.12615922227559 -64.01893866921816 -0.8440287277141301
    vertex 52.091731031144725 -63.63712417872099 9.155971272285852
    vertex 52.091731031144725 -63.63712417872099 -0.8440287277141301
  endloop
endfacet
facet normal 0.38852026653595345 -0.9214401784656624 0.0
  outer loop
    vertex 93.39428307790186 -70.40300059703138 9.155971272285852
    vertex 92.1368160030194 -70.93320478663708 -0.8440287277141301
    vertex 93.39428307790186 -70.40300059703138 -0.8440287277141301
  endloop
endfacet
facet normal 0.38852026653595345 -0.9214401784656624 0.0
  outer loop
    vertex 92.1368160030194 -70.93320478663708 -0.8440287277141301
    vertex 93.39428307790186 -70.40300059703138 9.155971272285852
    vertex 92.1368160030194 -70.93320478663708 9.155971272285852
  endloop
endfacet
facet normal -1.0 0.0 0.0
  outer loop
    vertex 52.091731031144725 -61.297949871012776 9.155971272285852
    vertex 52.091731031144725 -63.63712417872099 -0.8440287277141301
    vertex 52.091731031144725 -63.63712417872099 9.155971272285852
  endloop
endfacet
facet normal -1.0 0.0 0.0
  outer loop
    vertex 52.091731031144725 -63.63712417872099 -0.8440287277141301
    vertex 52.091731031144725 -61.297949871012776 9.155971272285852
    vertex 52.091731031144725 -61.297949871012776 -0.8440287277141301
  endloop
endfacet
facet normal 1.0 0.0 0.0
  outer loop
    vertex 98.09173103114465 -61.297949871012776 -0.8440287277141301
    vertex 98.09173103114465 -63.637124178721045 9.155971272285852
    vertex 98.09173103114465 -63.637124178721045 -0.8440287277141301
  endloop
endfacet
facet normal 1.0 0.0 0.0
  outer loop
    vertex 98.09173103114465 -63.637124178721045 9.155971272285852
    vertex 98.09173103114465 -61.297949871012776 -0.8440287277141301
    vertex 98.09173103114465 -61.297949871012776 9.155971272285852
  endloop
endfacet
facet normal 1.0 0.0 0.0
  outer loop
    vertex 80.09173103114469 -69.29794987101289 -0.8440287277141301
    vertex 80.09173103114469 -71.29794987101289 9.155971272285852
    vertex 80.09173103114469 -71.29794987101289 -0.8440287277141301
  endloop
endfacet
facet normal 1.0 0.0 0.0
  outer loop
    vertex 80.09173103114469 -71.29794987101289 9.155971272285852
    vertex 80.09173103114469 -69.29794987101289 -0.8440287277141301
    vertex 80.09173103114469 -69.29794987101289 9.155971272285852
  endloop
endfacet
facet normal 0.0 1.0 0.0
  outer loop
    vertex 77.59173103114465 -61.297949871012776 9.155971272285852
    vertex 98.09173103114465 -61.297949871012776 -0.8440287277141301
    vertex 77.59173103114465 -61.297949871012776 -0.8440287277141301
  endloop
endfacet
facet normal 0.0 1.0 0.0
  outer loop
    vertex 98.09173103114465 -61.297949871012776 -0.8440287277141301
    vertex 77.59173103114465 -61.297949871012776 9.155971272285852
    vertex 98.09173103114465 -61.297949871012776 9.155971272285852
  endloop
endfacet
facet normal -1.0 0.0 0.0
  outer loop
    vertex 77.59173103114465 -61.297949871012776 9.155971272285852
    vertex 77.59173103114465 -63.79794987101277 -0.8440287277141357
    vertex 77.59173103114465 -63.79794987101277 9.155971272285852
  endloop
endfacet
facet normal -1.0 0.0 0.0
  outer loop
    vertex 77.59173103114465 -63.79794987101277 -0.8440287277141357
    vertex 77.59173103114465 -61.297949871012776 9.155971272285852
    vertex 77.59173103114465 -61.297949871012776 -0.8440287277141301
  endloop
endfacet
facet normal -0.9214401784656658 -0.3885202665359452 0.0
  outer loop
    vertex 52.45647611552051 -65.3430348428875 9.155971272285852
    vertex 52.986680305126185 -66.60050191776995 -0.8440287277141301
    vertex 52.986680305126185 -66.60050191776995 9.155971272285852
  endloop
endfacet
facet normal -0.9214401784656658 -0.3885202665359452 0.0
  outer loop
    vertex 52.986680305126185 -66.60050191776995 -0.8440287277141301
    vertex 52.45647611552051 -65.3430348428875 9.155971272285852
    vertex 52.45647611552051 -65.3430348428875 -0.8440287277141301
  endloop
endfacet
facet normal 0.7595836658940389 -0.650409605177363 0.0
  outer loop
    vertex 96.47932925272396 -67.76136445526645 -0.8440287277141301
    vertex 95.59173103114468 -68.79794987101283 9.155971272285852
    vertex 95.59173103114468 -68.79794987101283 -0.8440287277141301
  endloop
endfacet
facet normal 0.7595836658940389 -0.650409605177363 0.0
  outer loop
    vertex 95.59173103114468 -68.79794987101283 9.155971272285852
    vertex 96.47932925272396 -67.76136445526645 -0.8440287277141301
    vertex 96.47932925272396 -67.76136445526645 9.155971272285852
  endloop
endfacet
facet normal -0.7595836658940429 -0.6504096051773581 0.0
  outer loop
    vertex 53.704132809565436 -67.76136445526639 9.155971272285852
    vertex 54.591731031144704 -68.79794987101279 -0.8440287277141301
    vertex 54.591731031144704 -68.79794987101279 9.155971272285852
  endloop
endfacet
facet normal -0.7595836658940429 -0.6504096051773581 0.0
  outer loop
    vertex 54.591731031144704 -68.79794987101279 -0.8440287277141301
    vertex 53.704132809565436 -67.76136445526639 9.155971272285852
    vertex 53.704132809565436 -67.76136445526639 -0.8440287277141301
  endloop
endfacet
facet normal 0.5257311121191502 -0.8506508083520297 0.0
  outer loop
    vertex 94.55514561539829 -69.68554809259211 9.155971272285852
    vertex 93.39428307790186 -70.40300059703138 -0.8440287277141301
    vertex 94.55514561539829 -69.68554809259211 -0.8440287277141301
  endloop
endfacet
facet normal 0.5257311121191502 -0.8506508083520297 0.0
  outer loop
    vertex 93.39428307790186 -70.40300059703138 -0.8440287277141301
    vertex 94.55514561539829 -69.68554809259211 9.155971272285852
    vertex 93.39428307790186 -70.40300059703138 9.155971272285852
  endloop
endfacet
facet normal -0.6504096051773588 -0.7595836658940424 0.0
  outer loop
    vertex 55.628316446891105 -69.68554809259207 9.155971272285852
    vertex 54.591731031144704 -68.79794987101279 -0.8440287277141301
    vertex 55.628316446891105 -69.68554809259207 -0.8440287277141301
  endloop
endfacet
facet normal -0.6504096051773588 -0.7595836658940424 0.0
  outer loop
    vertex 54.591731031144704 -68.79794987101279 -0.8440287277141301
    vertex 55.628316446891105 -69.68554809259207 9.155971272285852
    vertex 54.591731031144704 -68.79794987101279 9.155971272285852
  endloop
endfacet
facet normal -0.8506508083520418 -0.5257311121191309 0.0
  outer loop
    vertex 52.986680305126185 -66.60050191776995 9.155971272285852
    vertex 53.704132809565436 -67.76136445526639 -0.8440287277141301
    vertex 53.704132809565436 -67.76136445526639 9.155971272285852
  endloop
endfacet
facet normal -0.8506508083520418 -0.5257311121191309 0.0
  outer loop
    vertex 53.704132809565436 -67.76136445526639 -0.8440287277141301
    vertex 52.986680305126185 -66.60050191776995 9.155971272285852
    vertex 52.986680305126185 -66.60050191776995 -0.8440287277141301
  endloop
endfacet
facet normal 0.0 -1.0 0.0
  outer loop
    vertex 86.09173103114468 -69.29794987101289 9.155971272285852
    vertex 80.09173103114469 -69.29794987101289 -0.8440287277141301
    vertex 86.09173103114468 -69.29794987101289 -0.8440287277141301
  endloop
endfacet
facet normal 0.0 -1.0 0.0
  outer loop
    vertex 80.09173103114469 -69.29794987101289 -0.8440287277141301
    vertex 86.09173103114468 -69.29794987101289 9.155971272285852
    vertex 80.09173103114469 -69.29794987101289 9.155971272285852
  endloop
endfacet
facet normal 0.650409605177363 -0.7595836658940389 0.0
  outer loop
    vertex 95.59173103114468 -68.79794987101283 9.155971272285852
    vertex 94.55514561539829 -69.68554809259211 -0.8440287277141301
    vertex 95.59173103114468 -68.79794987101283 -0.8440287277141301
  endloop
endfacet
facet normal 0.650409605177363 -0.7595836658940389 0.0
  outer loop
    vertex 94.55514561539829 -69.68554809259211 -0.8440287277141301
    vertex 95.59173103114468 -68.79794987101283 9.155971272285852
    vertex 94.55514561539829 -69.68554809259211 9.155971272285852
  endloop
endfacet
facet normal 0.9959593139531115 -0.0898055953159247 0.0
  outer loop
    vertex 98.09173103114465 -63.637124178721045 -0.8440287277141301
    vertex 98.05730284001379 -64.01893866921816 9.155971272285852
    vertex 98.05730284001379 -64.01893866921816 -0.8440287277141301
  endloop
endfacet
facet normal 0.9959593139531115 -0.0898055953159247 0.0
  outer loop
    vertex 98.05730284001379 -64.01893866921816 9.155971272285852
    vertex 98.09173103114465 -63.637124178721045 -0.8440287277141301
    vertex 98.09173103114465 -63.637124178721045 9.155971272285852
  endloop
endfacet
facet normal 1.0 0.0 0.0
  outer loop
    vertex 64.09173103114472 -69.29794987101289 -0.8440287277141301
    vertex 64.09173103114472 -71.29794987101289 9.155971272285852
    vertex 64.09173103114472 -71.29794987101289 -0.8440287277141301
  endloop
endfacet
facet normal 1.0 0.0 0.0
  outer loop
    vertex 64.09173103114472 -71.29794987101289 9.155971272285852
    vertex 64.09173103114472 -69.29794987101289 -0.8440287277141301
    vertex 64.09173103114472 -69.29794987101289 9.155971272285852
  endloop
endfacet
facet normal 0.0 -1.0 0.0
  outer loop
    vertex 80.09173103114469 -71.29794987101289 9.155971272285852
    vertex 70.0917310311447 -71.29794987101289 -0.8440287277141301
    vertex 80.09173103114469 -71.29794987101289 -0.8440287277141301
  endloop
endfacet
facet normal 0.0 -1.0 0.0
  outer loop
    vertex 70.0917310311447 -71.29794987101289 -0.8440287277141301
    vertex 80.09173103114469 -71.29794987101289 9.155971272285852
    vertex 70.0917310311447 -71.29794987101289 9.155971272285852
  endloop
endfacet
facet normal 0.0 0.0 1.0
  outer loop
    vertex 90.43090533885263 -71.29794987101289 9.155971272285852
    vertex 86.09173103114468 -69.29794987101289 9.155971272285852
    vertex 86.09173103114468 -71.29794987101289 9.155971272285852
  endloop
endfacet
facet normal 0.0 0.0 1.0
  outer loop
    vertex 80.09173103114469 -71.29794987101289 9.155971272285852
    vertex 70.0917310311447 -69.29794987101289 9.155971272285852
    vertex 70.0917310311447 -71.29794987101289 9.155971272285852
  endloop
endfacet
facet normal 0.0 0.0 1.0
  outer loop
    vertex 70.0917310311447 -69.29794987101289 9.155971272285852
    vertex 80.09173103114469 -71.29794987101289 9.155971272285852
    vertex 73.32396407817832 -65.56571682397912 9.155971272285852
  endloop
endfacet
facet normal 0.0 0.0 1.0
  outer loop
    vertex 70.0917310311447 -69.29794987101289 9.155971272285852
    vertex 73.32396407817832 -65.56571682397912 9.155971272285852
    vertex 72.92666752168358 -65.04794987101276 9.155971272285852
  endloop
endfacet
facet normal 0.0 0.0 1.0
  outer loop
    vertex 70.0917310311447 -69.29794987101289 9.155971272285852
    vertex 72.92666752168358 -65.04794987101276 9.155971272285852
    vertex 72.67691646542202 -64.44499748376906 9.155971272285852
  endloop
endfacet
facet normal 0.0 0.0 1.0
  outer loop
    vertex 70.0917310311447 -69.29794987101289 9.155971272285852
    vertex 72.67691646542202 -64.44499748376906 9.155971272285852
    vertex 72.5917310311447 -63.79794987101277 9.155971272285852
  endloop
endfacet
facet normal 0.0 0.0 1.0
  outer loop
    vertex 73.32396407817832 -65.56571682397912 9.155971272285852
    vertex 80.09173103114469 -71.29794987101289 9.155971272285852
    vertex 73.84173103114469 -65.96301338047384 9.155971272285852
  endloop
endfacet
facet normal 0.0 0.0 1.0
  outer loop
    vertex 73.84173103114469 -65.96301338047384 9.155971272285852
    vertex 80.09173103114469 -71.29794987101289 9.155971272285852
    vertex 74.44468341838838 -66.21276443673541 9.155971272285852
  endloop
endfacet
facet normal 0.0 0.0 1.0
  outer loop
    vertex 74.44468341838838 -66.21276443673541 9.155971272285852
    vertex 80.09173103114469 -71.29794987101289 9.155971272285852
    vertex 75.09173103114468 -66.29794987101275 9.155971272285852
  endloop
endfacet
facet normal 0.0 0.0 1.0
  outer loop
    vertex 75.09173103114468 -66.29794987101275 9.155971272285852
    vertex 80.09173103114469 -71.29794987101289 9.155971272285852
    vertex 75.73877864390096 -66.21276443673541 9.155971272285852
  endloop
endfacet
facet normal 0.0 0.0 1.0
  outer loop
    vertex 75.73877864390096 -66.21276443673541 9.155971272285852
    vertex 80.09173103114469 -71.29794987101289 9.155971272285852
    vertex 76.34173103114466 -65.96301338047384 9.155971272285852
  endloop
endfacet
facet normal 0.0 0.0 1.0
  outer loop
    vertex 76.34173103114466 -65.96301338047384 9.155971272285852
    vertex 80.09173103114469 -71.29794987101289 9.155971272285852
    vertex 76.85949798411102 -65.56571682397912 9.155971272285852
  endloop
endfacet
facet normal 0.0 0.0 1.0
  outer loop
    vertex 76.85949798411102 -65.56571682397912 9.155971272285852
    vertex 80.09173103114469 -71.29794987101289 9.155971272285852
    vertex 77.25679454060572 -65.04794987101276 9.155971272285852
  endloop
endfacet
facet normal 0.0 0.0 1.0
  outer loop
    vertex 77.25679454060572 -65.04794987101276 9.155971272285852
    vertex 80.09173103114469 -71.29794987101289 9.155971272285852
    vertex 77.50654559686731 -64.44499748376906 9.155971272285852
  endloop
endfacet
facet normal 0.0 0.0 1.0
  outer loop
    vertex 77.50654559686731 -64.44499748376906 9.155971272285852
    vertex 80.09173103114469 -71.29794987101289 9.155971272285852
    vertex 77.59173103114465 -63.79794987101277 9.155971272285852
  endloop
endfacet
facet normal 0.0 0.0 1.0
  outer loop
    vertex 77.59173103114465 -63.79794987101277 9.155971272285852
    vertex 80.09173103114469 -71.29794987101289 9.155971272285852
    vertex 77.59173103114465 -61.297949871012776 9.155971272285852
  endloop
endfacet
facet normal 0.0 0.0 1.0
  outer loop
    vertex 77.59173103114465 -61.297949871012776 9.155971272285852
    vertex 80.09173103114469 -71.29794987101289 9.155971272285852
    vertex 80.09173103114469 -69.29794987101289 9.155971272285852
  endloop
endfacet
facet normal 0.0 0.0 1.0
  outer loop
    vertex 77.59173103114465 -61.297949871012776 9.155971272285852
    vertex 80.09173103114469 -69.29794987101289 9.155971272285852
    vertex 98.09173103114465 -61.297949871012776 9.155971272285852
  endloop
endfacet
facet normal 0.0 0.0 1.0
  outer loop
    vertex 98.09173103114465 -61.297949871012776 9.155971272285852
    vertex 80.09173103114469 -69.29794987101289 9.155971272285852
    vertex 86.09173103114468 -69.29794987101289 9.155971272285852
  endloop
endfacet
facet normal 0.0 0.0 1.0
  outer loop
    vertex 98.09173103114465 -61.297949871012776 9.155971272285852
    vertex 86.09173103114468 -69.29794987101289 9.155971272285852
    vertex 90.43090533885263 -71.29794987101289 9.155971272285852
  endloop
endfacet
facet normal 0.0 0.0 1.0
  outer loop
    vertex 98.09173103114465 -61.297949871012776 9.155971272285852
    vertex 90.43090533885263 -71.29794987101289 9.155971272285852
    vertex 90.81271982935006 -71.263521679882 9.155971272285852
  endloop
endfacet
facet normal 0.0 0.0 1.0
  outer loop
    vertex 98.09173103114465 -61.297949871012776 9.155971272285852
    vertex 90.81271982935006 -71.263521679882 9.155971272285852
    vertex 92.1368160030194 -70.93320478663708 9.155971272285852
  endloop
endfacet
facet normal 0.0 0.0 1.0
  outer loop
    vertex 98.09173103114465 -61.297949871012776 9.155971272285852
    vertex 92.1368160030194 -70.93320478663708 9.155971272285852
    vertex 93.39428307790186 -70.40300059703138 9.155971272285852
  endloop
endfacet
facet normal 0.0 0.0 1.0
  outer loop
    vertex 98.09173103114465 -61.297949871012776 9.155971272285852
    vertex 93.39428307790186 -70.40300059703138 9.155971272285852
    vertex 94.55514561539829 -69.68554809259211 9.155971272285852
  endloop
endfacet
facet normal 0.0 0.0 1.0
  outer loop
    vertex 98.09173103114465 -61.297949871012776 9.155971272285852
    vertex 94.55514561539829 -69.68554809259211 9.155971272285852
    vertex 95.59173103114468 -68.79794987101283 9.155971272285852
  endloop
endfacet
facet normal 0.0 0.0 1.0
  outer loop
    vertex 98.09173103114465 -61.297949871012776 9.155971272285852
    vertex 95.59173103114468 -68.79794987101283 9.155971272285852
    vertex 96.47932925272396 -67.76136445526645 9.155971272285852
  endloop
endfacet
facet normal 0.0 0.0 1.0
  outer loop
    vertex 98.09173103114465 -61.297949871012776 9.155971272285852
    vertex 96.47932925272396 -67.76136445526645 9.155971272285852
    vertex 97.19678175716321 -66.60050191776999 9.155971272285852
  endloop
endfacet
facet normal 0.0 0.0 1.0
  outer loop
    vertex 98.09173103114465 -61.297949871012776 9.155971272285852
    vertex 97.19678175716321 -66.60050191776999 9.155971272285852
    vertex 97.72698594676889 -65.34303484288753 9.155971272285852
  endloop
endfacet
facet normal 0.0 0.0 1.0
  outer loop
    vertex 98.09173103114465 -61.297949871012776 9.155971272285852
    vertex 97.72698594676889 -65.34303484288753 9.155971272285852
    vertex 98.05730284001379 -64.01893866921816 9.155971272285852
  endloop
endfacet
facet normal 0.0 0.0 1.0
  outer loop
    vertex 98.09173103114465 -61.297949871012776 9.155971272285852
    vertex 98.05730284001379 -64.01893866921816 9.155971272285852
    vertex 98.09173103114465 -63.637124178721045 9.155971272285852
  endloop
endfacet
facet normal 0.0 0.0 1.0
  outer loop
    vertex 52.12615922227559 -64.01893866921816 9.155971272285852
    vertex 52.091731031144725 -61.297949871012776 9.155971272285852
    vertex 52.091731031144725 -63.63712417872099 9.155971272285852
  endloop
endfacet
facet normal 0.0 0.0 1.0
  outer loop
    vertex 52.091731031144725 -61.297949871012776 9.155971272285852
    vertex 52.12615922227559 -64.01893866921816 9.155971272285852
    vertex 72.5917310311447 -61.297949871012776 9.155971272285852
  endloop
endfacet
facet normal 0.0 0.0 1.0
  outer loop
    vertex 72.5917310311447 -61.297949871012776 9.155971272285852
    vertex 52.12615922227559 -64.01893866921816 9.155971272285852
    vertex 52.45647611552051 -65.3430348428875 9.155971272285852
  endloop
endfacet
facet normal 0.0 0.0 1.0
  outer loop
    vertex 72.5917310311447 -61.297949871012776 9.155971272285852
    vertex 52.45647611552051 -65.3430348428875 9.155971272285852
    vertex 52.986680305126185 -66.60050191776995 9.155971272285852
  endloop
endfacet
facet normal 0.0 0.0 1.0
  outer loop
    vertex 72.5917310311447 -61.297949871012776 9.155971272285852
    vertex 52.986680305126185 -66.60050191776995 9.155971272285852
    vertex 53.704132809565436 -67.76136445526639 9.155971272285852
  endloop
endfacet
facet normal 0.0 0.0 1.0
  outer loop
    vertex 72.5917310311447 -61.297949871012776 9.155971272285852
    vertex 53.704132809565436 -67.76136445526639 9.155971272285852
    vertex 54.591731031144704 -68.79794987101279 9.155971272285852
  endloop
endfacet
facet normal 0.0 0.0 1.0
  outer loop
    vertex 72.5917310311447 -61.297949871012776 9.155971272285852
    vertex 54.591731031144704 -68.79794987101279 9.155971272285852
    vertex 55.628316446891105 -69.68554809259207 9.155971272285852
  endloop
endfacet
facet normal 0.0 0.0 1.0
  outer loop
    vertex 72.5917310311447 -61.297949871012776 9.155971272285852
    vertex 55.628316446891105 -69.68554809259207 9.155971272285852
    vertex 56.789178984387554 -70.40300059703131 9.155971272285852
  endloop
endfacet
facet normal 0.0 0.0 1.0
  outer loop
    vertex 72.5917310311447 -61.297949871012776 9.155971272285852
    vertex 56.789178984387554 -70.40300059703131 9.155971272285852
    vertex 58.04664605926999 -70.93320478663699 9.155971272285852
  endloop
endfacet
facet normal 0.0 0.0 1.0
  outer loop
    vertex 72.5917310311447 -61.297949871012776 9.155971272285852
    vertex 58.04664605926999 -70.93320478663699 9.155971272285852
    vertex 59.37074223293935 -71.26352167988189 9.155971272285852
  endloop
endfacet
facet normal 0.0 0.0 1.0
  outer loop
    vertex 72.5917310311447 -61.297949871012776 9.155971272285852
    vertex 59.37074223293935 -71.26352167988189 9.155971272285852
    vertex 59.75255672343656 -71.29794987101278 9.155971272285852
  endloop
endfacet
facet normal 0.0 0.0 1.0
  outer loop
    vertex 72.5917310311447 -61.297949871012776 9.155971272285852
    vertex 59.75255672343656 -71.29794987101278 9.155971272285852
    vertex 64.09173103114472 -69.29794987101289 9.155971272285852
  endloop
endfacet
facet normal 0.0 0.0 1.0
  outer loop
    vertex 64.09173103114472 -69.29794987101289 9.155971272285852
    vertex 59.75255672343656 -71.29794987101278 9.155971272285852
    vertex 64.09173103114472 -71.29794987101289 9.155971272285852
  endloop
endfacet
facet normal 0.0 0.0 1.0
  outer loop
    vertex 72.5917310311447 -61.297949871012776 9.155971272285852
    vertex 64.09173103114472 -69.29794987101289 9.155971272285852
    vertex 70.0917310311447 -69.29794987101289 9.155971272285852
  endloop
endfacet
facet normal 0.0 0.0 1.0
  outer loop
    vertex 72.5917310311447 -61.297949871012776 9.155971272285852
    vertex 70.0917310311447 -69.29794987101289 9.155971272285852
    vertex 72.5917310311447 -63.79794987101277 9.155971272285852
  endloop
endfacet
facet normal 1.0 0.0 0.0
  outer loop
    vertex 70.0917310311447 -69.29794987101289 -0.8440287277141301
    vertex 70.0917310311447 -71.29794987101289 9.155971272285852
    vertex 70.0917310311447 -71.29794987101289 -0.8440287277141301
  endloop
endfacet
facet normal 1.0 0.0 0.0
  outer loop
    vertex 70.0917310311447 -71.29794987101289 9.155971272285852
    vertex 70.0917310311447 -69.29794987101289 -0.8440287277141301
    vertex 70.0917310311447 -69.29794987101289 9.155971272285852
  endloop
endfacet
facet normal 0.0 1.0 0.0
  outer loop
    vertex 52.091731031144725 -61.297949871012776 9.155971272285852
    vertex 72.5917310311447 -61.297949871012776 -0.8440287277141301
    vertex 52.091731031144725 -61.297949871012776 -0.8440287277141301
  endloop
endfacet
facet normal 0.0 1.0 0.0
  outer loop
    vertex 72.5917310311447 -61.297949871012776 -0.8440287277141301
    vertex 52.091731031144725 -61.297949871012776 9.155971272285852
    vertex 72.5917310311447 -61.297949871012776 9.155971272285852
  endloop
endfacet
facet normal -0.9914448613738096 0.13052619222005835 0.0
  outer loop
    vertex 77.59173103114465 -63.79794987101277 9.155971272285852
    vertex 77.50654559686731 -64.44499748376906 -0.8440287277141357
    vertex 77.50654559686731 -64.44499748376906 9.155971272285852
  endloop
endfacet
facet normal -0.9914448613738096 0.13052619222005835 0.0
  outer loop
    vertex 77.50654559686731 -64.44499748376906 -0.8440287277141357
    vertex 77.59173103114465 -63.79794987101277 9.155971272285852
    vertex 77.59173103114465 -63.79794987101277 -0.8440287277141357
  endloop
endfacet
facet normal -0.13052619222005835 0.9914448613738096 0.0
  outer loop
    vertex 75.09173103114468 -66.29794987101275 9.155971272285852
    vertex 75.73877864390096 -66.21276443673541 -0.8440287277141357
    vertex 75.09173103114468 -66.29794987101275 -0.8440287277141357
  endloop
endfacet
facet normal -0.13052619222005835 0.9914448613738096 0.0
  outer loop
    vertex 75.73877864390096 -66.21276443673541 -0.8440287277141357
    vertex 75.09173103114468 -66.29794987101275 9.155971272285852
    vertex 75.73877864390096 -66.21276443673541 9.155971272285852
  endloop
endfacet
facet normal 0.9914448613738096 0.13052619222005835 0.0
  outer loop
    vertex 72.5917310311447 -63.79794987101277 -0.844028727714133
    vertex 72.67691646542202 -64.44499748376906 9.155971272285852
    vertex 72.67691646542202 -64.44499748376906 -0.844028727714133
  endloop
endfacet
facet normal 0.9914448613738096 0.13052619222005835 0.0
  outer loop
    vertex 72.67691646542202 -64.44499748376906 9.155971272285852
    vertex 72.5917310311447 -63.79794987101277 -0.844028727714133
    vertex 72.5917310311447 -63.79794987101277 9.155971272285852
  endloop
endfacet
facet normal 1.0 0.0 0.0
  outer loop
    vertex 72.5917310311447 -61.297949871012776 -0.8440287277141301
    vertex 72.5917310311447 -63.79794987101277 9.155971272285852
    vertex 72.5917310311447 -63.79794987101277 -0.844028727714133
  endloop
endfacet
facet normal 1.0 0.0 0.0
  outer loop
    vertex 72.5917310311447 -63.79794987101277 9.155971272285852
    vertex 72.5917310311447 -61.297949871012776 -0.8440287277141301
    vertex 72.5917310311447 -61.297949871012776 9.155971272285852
  endloop
endfacet
facet normal -0.9702643026940991 -0.24204789385064598 0.0
  outer loop
    vertex 52.12615922227559 -64.01893866921816 9.155971272285852
    vertex 52.45647611552051 -65.3430348428875 -0.8440287277141301
    vertex 52.45647611552051 -65.3430348428875 9.155971272285852
  endloop
endfacet
facet normal -0.9702643026940991 -0.24204789385064598 0.0
  outer loop
    vertex 52.45647611552051 -65.3430348428875 -0.8440287277141301
    vertex 52.12615922227559 -64.01893866921816 9.155971272285852
    vertex 52.12615922227559 -64.01893866921816 -0.8440287277141301
  endloop
endfacet
facet normal -0.9238795325112896 0.38268343236508284 0.0
  outer loop
    vertex 77.50654559686731 -64.44499748376906 9.155971272285852
    vertex 77.25679454060572 -65.04794987101276 -0.8440287277141357
    vertex 77.25679454060572 -65.04794987101276 9.155971272285852
  endloop
endfacet
facet normal -0.9238795325112896 0.38268343236508284 0.0
  outer loop
    vertex 77.25679454060572 -65.04794987101276 -0.8440287277141357
    vertex 77.50654559686731 -64.44499748376906 9.155971272285852
    vertex 77.50654559686731 -64.44499748376906 -0.8440287277141357
  endloop
endfacet
facet normal 0.6087614290087184 0.793353340291237 0.0
  outer loop
    vertex 73.32396407817832 -65.56571682397912 9.155971272285852
    vertex 73.84173103114469 -65.96301338047384 -0.844028727714133
    vertex 73.32396407817832 -65.56571682397912 -0.844028727714133
  endloop
endfacet
facet normal 0.6087614290087184 0.793353340291237 0.0
  outer loop
    vertex 73.84173103114469 -65.96301338047384 -0.844028727714133
    vertex 73.32396407817832 -65.56571682397912 9.155971272285852
    vertex 73.84173103114469 -65.96301338047384 9.155971272285852
  endloop
endfacet
facet normal -0.38268343236508284 0.9238795325112896 0.0
  outer loop
    vertex 75.73877864390096 -66.21276443673541 9.155971272285852
    vertex 76.34173103114466 -65.96301338047384 -0.8440287277141357
    vertex 75.73877864390096 -66.21276443673541 -0.8440287277141357
  endloop
endfacet
facet normal -0.38268343236508284 0.9238795325112896 0.0
  outer loop
    vertex 76.34173103114466 -65.96301338047384 -0.8440287277141357
    vertex 75.73877864390096 -66.21276443673541 9.155971272285852
    vertex 76.34173103114466 -65.96301338047384 9.155971272285852
  endloop
endfacet
facet normal -0.08980559531596205 -0.995959313953108 0.0
  outer loop
    vertex 59.75255672343656 -71.29794987101278 9.155971272285852
    vertex 59.37074223293935 -71.26352167988189 -0.8440287277141301
    vertex 59.75255672343656 -71.29794987101278 -0.8440287277141301
  endloop
endfacet
facet normal -0.08980559531596205 -0.995959313953108 0.0
  outer loop
    vertex 59.37074223293935 -71.26352167988189 -0.8440287277141301
    vertex 59.75255672343656 -71.29794987101278 9.155971272285852
    vertex 59.37074223293935 -71.26352167988189 9.155971272285852
  endloop
endfacet
facet normal 0.13052619222005835 0.9914448613738096 7.381608045645803e-20
  outer loop
    vertex 74.44468341838838 -66.21276443673541 -0.844028727714133
    vertex 75.09173103114468 -66.29794987101275 9.155971272285852
    vertex 75.09173103114468 -66.29794987101275 -0.8440287277141357
  endloop
endfacet
facet normal 0.13052619222005835 0.9914448613738096 7.381608045645803e-20
  outer loop
    vertex 75.09173103114468 -66.29794987101275 9.155971272285852
    vertex 74.44468341838838 -66.21276443673541 -0.844028727714133
    vertex 74.44468341838838 -66.21276443673541 9.155971272285852
  endloop
endfacet
facet normal -0.793353340291237 0.6087614290087184 0.0
  outer loop
    vertex 77.25679454060572 -65.04794987101276 9.155971272285852
    vertex 76.85949798411102 -65.56571682397912 -0.8440287277141357
    vertex 76.85949798411102 -65.56571682397912 9.155971272285852
  endloop
endfacet
facet normal -0.793353340291237 0.6087614290087184 0.0
  outer loop
    vertex 76.85949798411102 -65.56571682397912 -0.8440287277141357
    vertex 77.25679454060572 -65.04794987101276 9.155971272285852
    vertex 77.25679454060572 -65.04794987101276 -0.8440287277141357
  endloop
endfacet
facet normal 0.0 -1.0 0.0
  outer loop
    vertex 90.43090533885263 -71.29794987101289 9.155971272285852
    vertex 86.09173103114468 -71.29794987101289 -0.8440287277141301
    vertex 90.43090533885263 -71.29794987101289 -0.8440287277141301
  endloop
endfacet
facet normal 0.0 -1.0 0.0
  outer loop
    vertex 86.09173103114468 -71.29794987101289 -0.8440287277141301
    vertex 90.43090533885263 -71.29794987101289 9.155971272285852
    vertex 86.09173103114468 -71.29794987101289 9.155971272285852
  endloop
endfacet
facet normal -2.599542016589176e-14 -1.0 0.0
  outer loop
    vertex 64.09173103114472 -71.29794987101289 9.155971272285852
    vertex 59.75255672343656 -71.29794987101278 -0.8440287277141301
    vertex 64.09173103114472 -71.29794987101289 -0.8440287277141301
  endloop
endfacet
facet normal -2.599542016589176e-14 -1.0 0.0
  outer loop
    vertex 59.75255672343656 -71.29794987101278 -0.8440287277141301
    vertex 64.09173103114472 -71.29794987101289 9.155971272285852
    vertex 59.75255672343656 -71.29794987101278 9.155971272285852
  endloop
endfacet
facet normal 0.38268343236508284 0.9238795325112896 0.0
  outer loop
    vertex 73.84173103114469 -65.96301338047384 9.155971272285852
    vertex 74.44468341838838 -66.21276443673541 -0.844028727714133
    vertex 73.84173103114469 -65.96301338047384 -0.844028727714133
  endloop
endfacet
facet normal 0.38268343236508284 0.9238795325112896 0.0
  outer loop
    vertex 74.44468341838838 -66.21276443673541 -0.844028727714133
    vertex 73.84173103114469 -65.96301338047384 9.155971272285852
    vertex 74.44468341838838 -66.21276443673541 9.155971272285852
  endloop
endfacet
facet normal -1.0 0.0 0.0
  outer loop
    vertex 86.09173103114468 -69.29794987101289 9.155971272285852
    vertex 86.09173103114468 -71.29794987101289 -0.8440287277141301
    vertex 86.09173103114468 -71.29794987101289 9.155971272285852
  endloop
endfacet
facet normal -1.0 0.0 0.0
  outer loop
    vertex 86.09173103114468 -71.29794987101289 -0.8440287277141301
    vertex 86.09173103114468 -69.29794987101289 9.155971272285852
    vertex 86.09173103114468 -69.29794987101289 -0.8440287277141301
  endloop
endfacet
facet normal 0.0 -1.0 0.0
  outer loop
    vertex 70.0917310311447 -69.29794987101289 9.155971272285852
    vertex 64.09173103114472 -69.29794987101289 -0.8440287277141301
    vertex 70.0917310311447 -69.29794987101289 -0.8440287277141301
  endloop
endfacet
facet normal 0.0 -1.0 0.0
  outer loop
    vertex 64.09173103114472 -69.29794987101289 -0.8440287277141301
    vertex 70.0917310311447 -69.29794987101289 9.155971272285852
    vertex 64.09173103114472 -69.29794987101289 9.155971272285852
  endloop
endfacet
facet normal 0.793353340291237 0.6087614290087184 0.0
  outer loop
    vertex 72.92666752168358 -65.04794987101276 -0.844028727714133
    vertex 73.32396407817832 -65.56571682397912 9.155971272285852
    vertex 73.32396407817832 -65.56571682397912 -0.844028727714133
  endloop
endfacet
facet normal 0.793353340291237 0.6087614290087184 0.0
  outer loop
    vertex 73.32396407817832 -65.56571682397912 9.155971272285852
    vertex 72.92666752168358 -65.04794987101276 -0.844028727714133
    vertex 72.92666752168358 -65.04794987101276 9.155971272285852
  endloop
endfacet
facet normal 0.9238795325112896 0.38268343236508284 0.0
  outer loop
    vertex 72.67691646542202 -64.44499748376906 -0.844028727714133
    vertex 72.92666752168358 -65.04794987101276 9.155971272285852
    vertex 72.92666752168358 -65.04794987101276 -0.844028727714133
  endloop
endfacet
facet normal 0.9238795325112896 0.38268343236508284 0.0
  outer loop
    vertex 72.92666752168358 -65.04794987101276 9.155971272285852
    vertex 72.67691646542202 -64.44499748376906 -0.844028727714133
    vertex 72.67691646542202 -64.44499748376906 9.155971272285852
  endloop
endfacet
facet normal -3.949636760716043e-18 -1.9447387789969176e-16 -1.0
  outer loop
    vertex 98.09173103114465 -61.297949871012776 -0.8440287277141301
    vertex 77.59173103114465 -63.79794987101277 -0.8440287277141357
    vertex 77.59173103114465 -61.297949871012776 -0.8440287277141301
  endloop
endfacet
facet normal -3.949636760716043e-18 -1.9447387789969176e-16 -1.0
  outer loop
    vertex 77.59173103114465 -63.79794987101277 -0.8440287277141357
    vertex 98.09173103114465 -61.297949871012776 -0.8440287277141301
    vertex 80.09173103114469 -69.29794987101289 -0.8440287277141301
  endloop
endfacet
facet normal -3.949636760716043e-18 -1.9447387789969176e-16 -1.0
  outer loop
    vertex 80.09173103114469 -69.29794987101289 -0.8440287277141301
    vertex 98.09173103114465 -61.297949871012776 -0.8440287277141301
    vertex 86.09173103114468 -69.29794987101289 -0.8440287277141301
  endloop
endfacet
facet normal -3.949636760716043e-18 -1.9447387789969176e-16 -1.0
  outer loop
    vertex 86.09173103114468 -69.29794987101289 -0.8440287277141301
    vertex 98.09173103114465 -61.297949871012776 -0.8440287277141301
    vertex 86.09173103114468 -71.29794987101289 -0.8440287277141301
  endloop
endfacet
facet normal -3.949636760716043e-18 -1.9447387789969176e-16 -1.0
  outer loop
    vertex 86.09173103114468 -71.29794987101289 -0.8440287277141301
    vertex 98.09173103114465 -61.297949871012776 -0.8440287277141301
    vertex 90.43090533885263 -71.29794987101289 -0.8440287277141301
  endloop
endfacet
facet normal -3.949636760716043e-18 -1.9447387789969176e-16 -1.0
  outer loop
    vertex 90.43090533885263 -71.29794987101289 -0.8440287277141301
    vertex 98.09173103114465 -61.297949871012776 -0.8440287277141301
    vertex 90.81271982935006 -71.263521679882 -0.8440287277141301
  endloop
endfacet
facet normal -3.949636760716043e-18 -1.9447387789969176e-16 -1.0
  outer loop
    vertex 90.81271982935006 -71.263521679882 -0.8440287277141301
    vertex 98.09173103114465 -61.297949871012776 -0.8440287277141301
    vertex 92.1368160030194 -70.93320478663708 -0.8440287277141301
  endloop
endfacet
facet normal -3.949636760716043e-18 -1.9447387789969176e-16 -1.0
  outer loop
    vertex 92.1368160030194 -70.93320478663708 -0.8440287277141301
    vertex 98.09173103114465 -61.297949871012776 -0.8440287277141301
    vertex 93.39428307790186 -70.40300059703138 -0.8440287277141301
  endloop
endfacet
facet normal -3.949636760716043e-18 -1.9447387789969176e-16 -1.0
  outer loop
    vertex 93.39428307790186 -70.40300059703138 -0.8440287277141301
    vertex 98.09173103114465 -61.297949871012776 -0.8440287277141301
    vertex 94.55514561539829 -69.68554809259211 -0.8440287277141301
  endloop
endfacet
facet normal -3.949636760716043e-18 -1.9447387789969176e-16 -1.0
  outer loop
    vertex 94.55514561539829 -69.68554809259211 -0.8440287277141301
    vertex 98.09173103114465 -61.297949871012776 -0.8440287277141301
    vertex 95.59173103114468 -68.79794987101283 -0.8440287277141301
  endloop
endfacet
facet normal -3.949636760716043e-18 -1.9447387789969176e-16 -1.0
  outer loop
    vertex 95.59173103114468 -68.79794987101283 -0.8440287277141301
    vertex 98.09173103114465 -61.297949871012776 -0.8440287277141301
    vertex 96.47932925272396 -67.76136445526645 -0.8440287277141301
  endloop
endfacet
facet normal -3.949636760716043e-18 -1.9447387789969176e-16 -1.0
  outer loop
    vertex 96.47932925272396 -67.76136445526645 -0.8440287277141301
    vertex 98.09173103114465 -61.297949871012776 -0.8440287277141301
    vertex 97.19678175716321 -66.60050191776999 -0.8440287277141301
  endloop
endfacet
facet normal -3.949636760716043e-18 -1.9447387789969176e-16 -1.0
  outer loop
    vertex 97.19678175716321 -66.60050191776999 -0.8440287277141301
    vertex 98.09173103114465 -61.297949871012776 -0.8440287277141301
    vertex 97.72698594676889 -65.34303484288753 -0.8440287277141301
  endloop
endfacet
facet normal -3.949636760716043e-18 -1.9447387789969176e-16 -1.0
  outer loop
    vertex 97.72698594676889 -65.34303484288753 -0.8440287277141301
    vertex 98.09173103114465 -61.297949871012776 -0.8440287277141301
    vertex 98.05730284001379 -64.01893866921816 -0.8440287277141301
  endloop
endfacet
facet normal -3.949636760716043e-18 -1.9447387789969176e-16 -1.0
  outer loop
    vertex 98.05730284001379 -64.01893866921816 -0.8440287277141301
    vertex 98.09173103114465 -61.297949871012776 -0.8440287277141301
    vertex 98.09173103114465 -63.637124178721045 -0.8440287277141301
  endloop
endfacet
facet normal -3.949636760716043e-18 -1.9447387789969176e-16 -1.0
  outer loop
    vertex 72.5917310311447 -61.297949871012776 -0.8440287277141301
    vertex 52.091731031144725 -63.63712417872099 -0.8440287277141301
    vertex 52.091731031144725 -61.297949871012776 -0.8440287277141301
  endloop
endfacet
facet normal -3.949636760716043e-18 -1.9447387789969176e-16 -1.0
  outer loop
    vertex 52.091731031144725 -63.63712417872099 -0.8440287277141301
    vertex 72.5917310311447 -61.297949871012776 -0.8440287277141301
    vertex 52.12615922227559 -64.01893866921816 -0.8440287277141301
  endloop
endfacet
facet normal -3.949636760716043e-18 -1.9447387789969176e-16 -1.0
  outer loop
    vertex 52.12615922227559 -64.01893866921816 -0.8440287277141301
    vertex 72.5917310311447 -61.297949871012776 -0.8440287277141301
    vertex 52.45647611552051 -65.3430348428875 -0.8440287277141301
  endloop
endfacet
facet normal -3.949636760716043e-18 -1.9447387789969176e-16 -1.0
  outer loop
    vertex 52.45647611552051 -65.3430348428875 -0.8440287277141301
    vertex 72.5917310311447 -61.297949871012776 -0.8440287277141301
    vertex 52.986680305126185 -66.60050191776995 -0.8440287277141301
  endloop
endfacet
facet normal -3.949636760716043e-18 -1.9447387789969176e-16 -1.0
  outer loop
    vertex 52.986680305126185 -66.60050191776995 -0.8440287277141301
    vertex 72.5917310311447 -61.297949871012776 -0.8440287277141301
    vertex 53.704132809565436 -67.76136445526639 -0.8440287277141301
  endloop
endfacet
facet normal -3.949636760716043e-18 -1.9447387789969176e-16 -1.0
  outer loop
    vertex 53.704132809565436 -67.76136445526639 -0.8440287277141301
    vertex 72.5917310311447 -61.297949871012776 -0.8440287277141301
    vertex 54.591731031144704 -68.79794987101279 -0.8440287277141301
  endloop
endfacet
facet normal -3.949636760716043e-18 -1.9447387789969176e-16 -1.0
  outer loop
    vertex 54.591731031144704 -68.79794987101279 -0.8440287277141301
    vertex 72.5917310311447 -61.297949871012776 -0.8440287277141301
    vertex 55.628316446891105 -69.68554809259207 -0.8440287277141301
  endloop
endfacet
facet normal -3.949636760716043e-18 -1.9447387789969176e-16 -1.0
  outer loop
    vertex 55.628316446891105 -69.68554809259207 -0.8440287277141301
    vertex 72.5917310311447 -61.297949871012776 -0.8440287277141301
    vertex 56.789178984387554 -70.40300059703131 -0.8440287277141301
  endloop
endfacet
facet normal -3.949636760716043e-18 -1.9447387789969176e-16 -1.0
  outer loop
    vertex 56.789178984387554 -70.40300059703131 -0.8440287277141301
    vertex 72.5917310311447 -61.297949871012776 -0.8440287277141301
    vertex 58.04664605926999 -70.93320478663699 -0.8440287277141301
  endloop
endfacet
facet normal -3.949636760716043e-18 -1.9447387789969176e-16 -1.0
  outer loop
    vertex 58.04664605926999 -70.93320478663699 -0.8440287277141301
    vertex 72.5917310311447 -61.297949871012776 -0.8440287277141301
    vertex 59.37074223293935 -71.26352167988189 -0.8440287277141301
  endloop
endfacet
facet normal -3.949636760716043e-18 -1.9447387789969176e-16 -1.0
  outer loop
    vertex 59.37074223293935 -71.26352167988189 -0.8440287277141301
    vertex 72.5917310311447 -61.297949871012776 -0.8440287277141301
    vertex 59.75255672343656 -71.29794987101278 -0.8440287277141301
  endloop
endfacet
facet normal -3.949636760716043e-18 -1.9447387789969176e-16 -1.0
  outer loop
    vertex 59.75255672343656 -71.29794987101278 -0.8440287277141301
    vertex 72.5917310311447 -61.297949871012776 -0.8440287277141301
    vertex 64.09173103114472 -69.29794987101289 -0.8440287277141301
  endloop
endfacet
facet normal -3.949636760716043e-18 -1.9447387789969176e-16 -1.0
  outer loop
    vertex 64.09173103114472 -69.29794987101289 -0.8440287277141301
    vertex 72.5917310311447 -61.297949871012776 -0.8440287277141301
    vertex 70.0917310311447 -69.29794987101289 -0.8440287277141301
  endloop
endfacet
facet normal -3.949636760716043e-18 -1.9447387789969176e-16 -1.0
  outer loop
    vertex 70.0917310311447 -69.29794987101289 -0.8440287277141301
    vertex 72.5917310311447 -61.297949871012776 -0.8440287277141301
    vertex 70.0917310311447 -71.29794987101289 -0.8440287277141301
  endloop
endfacet
facet normal -3.949636760716043e-18 -1.9447387789969176e-16 -1.0
  outer loop
    vertex 70.0917310311447 -71.29794987101289 -0.8440287277141301
    vertex 72.5917310311447 -61.297949871012776 -0.8440287277141301
    vertex 72.5917310311447 -63.79794987101277 -0.844028727714133
  endloop
endfacet
facet normal -3.949636760716043e-18 -1.9447387789969176e-16 -1.0
  outer loop
    vertex 70.0917310311447 -71.29794987101289 -0.8440287277141301
    vertex 72.5917310311447 -63.79794987101277 -0.844028727714133
    vertex 72.67691646542202 -64.44499748376906 -0.844028727714133
  endloop
endfacet
facet normal -3.949636760716043e-18 -1.9447387789969176e-16 -1.0
  outer loop
    vertex 70.0917310311447 -71.29794987101289 -0.8440287277141301
    vertex 72.67691646542202 -64.44499748376906 -0.844028727714133
    vertex 72.92666752168358 -65.04794987101276 -0.844028727714133
  endloop
endfacet
facet normal -3.949636760716043e-18 -1.9447387789969176e-16 -1.0
  outer loop
    vertex 70.0917310311447 -71.29794987101289 -0.8440287277141301
    vertex 72.92666752168358 -65.04794987101276 -0.844028727714133
    vertex 73.32396407817832 -65.56571682397912 -0.844028727714133
  endloop
endfacet
facet normal -3.949636760716043e-18 -1.9447387789969176e-16 -1.0
  outer loop
    vertex 70.0917310311447 -71.29794987101289 -0.8440287277141301
    vertex 73.32396407817832 -65.56571682397912 -0.844028727714133
    vertex 80.09173103114469 -71.29794987101289 -0.8440287277141301
  endloop
endfacet
facet normal -3.949636760716043e-18 -1.9447387789969176e-16 -1.0
  outer loop
    vertex 80.09173103114469 -71.29794987101289 -0.8440287277141301
    vertex 73.32396407817832 -65.56571682397912 -0.844028727714133
    vertex 73.84173103114469 -65.96301338047384 -0.844028727714133
  endloop
endfacet
facet normal -3.949636760716043e-18 -1.9447387789969176e-16 -1.0
  outer loop
    vertex 80.09173103114469 -71.29794987101289 -0.8440287277141301
    vertex 73.84173103114469 -65.96301338047384 -0.844028727714133
    vertex 74.44468341838838 -66.21276443673541 -0.844028727714133
  endloop
endfacet
facet normal -3.949636760716043e-18 -1.9447387789969176e-16 -1.0
  outer loop
    vertex 80.09173103114469 -71.29794987101289 -0.8440287277141301
    vertex 74.44468341838838 -66.21276443673541 -0.844028727714133
    vertex 75.09173103114468 -66.29794987101275 -0.8440287277141357
  endloop
endfacet
facet normal -3.949636760716043e-18 -1.9447387789969176e-16 -1.0
  outer loop
    vertex 80.09173103114469 -71.29794987101289 -0.8440287277141301
    vertex 75.09173103114468 -66.29794987101275 -0.8440287277141357
    vertex 75.73877864390096 -66.21276443673541 -0.8440287277141357
  endloop
endfacet
facet normal -3.949636760716043e-18 -1.9447387789969176e-16 -1.0
  outer loop
    vertex 80.09173103114469 -71.29794987101289 -0.8440287277141301
    vertex 75.73877864390096 -66.21276443673541 -0.8440287277141357
    vertex 76.34173103114466 -65.96301338047384 -0.8440287277141357
  endloop
endfacet
facet normal -3.949636760716043e-18 -1.9447387789969176e-16 -1.0
  outer loop
    vertex 80.09173103114469 -71.29794987101289 -0.8440287277141301
    vertex 76.34173103114466 -65.96301338047384 -0.8440287277141357
    vertex 76.85949798411102 -65.56571682397912 -0.8440287277141357
  endloop
endfacet
facet normal -3.949636760716043e-18 -1.9447387789969176e-16 -1.0
  outer loop
    vertex 80.09173103114469 -71.29794987101289 -0.8440287277141301
    vertex 76.85949798411102 -65.56571682397912 -0.8440287277141357
    vertex 77.25679454060572 -65.04794987101276 -0.8440287277141357
  endloop
endfacet
facet normal -3.949636760716043e-18 -1.9447387789969176e-16 -1.0
  outer loop
    vertex 80.09173103114469 -71.29794987101289 -0.8440287277141301
    vertex 77.25679454060572 -65.04794987101276 -0.8440287277141357
    vertex 77.50654559686731 -64.44499748376906 -0.8440287277141357
  endloop
endfacet
facet normal -3.949636760716043e-18 -1.9447387789969176e-16 -1.0
  outer loop
    vertex 80.09173103114469 -71.29794987101289 -0.8440287277141301
    vertex 77.50654559686731 -64.44499748376906 -0.8440287277141357
    vertex 77.59173103114465 -63.79794987101277 -0.8440287277141357
  endloop
endfacet
facet normal -3.949636760716043e-18 -1.9447387789969176e-16 -1.0
  outer loop
    vertex 80.09173103114469 -71.29794987101289 -0.8440287277141301
    vertex 77.59173103114465 -63.79794987101277 -0.8440287277141357
    vertex 80.09173103114469 -69.29794987101289 -0.8440287277141301
  endloop
endfacet
facet normal -3.949636760716043e-18 -1.9447387789969176e-16 -1.0
  outer loop
    vertex 64.09173103114472 -71.29794987101289 -0.8440287277141301
    vertex 59.75255672343656 -71.29794987101278 -0.8440287277141301
    vertex 64.09173103114472 -69.29794987101289 -0.8440287277141301
  endloop
endfacet
facet normal -0.6087614290087184 0.793353340291237 0.0
  outer loop
    vertex 76.34173103114466 -65.96301338047384 9.155971272285852
    vertex 76.85949798411102 -65.56571682397912 -0.8440287277141357
    vertex 76.34173103114466 -65.96301338047384 -0.8440287277141357
  endloop
endfacet
facet normal -0.6087614290087184 0.793353340291237 0.0
  outer loop
    vertex 76.85949798411102 -65.56571682397912 -0.8440287277141357
    vertex 76.34173103114466 -65.96301338047384 9.155971272285852
    vertex 76.85949798411102 -65.56571682397912 9.155971272285852
  endloop
endfacet
endsolid OpenROVNiskinRear
