solid OpenROVNiskin
facet normal 0.0 -1.0 0.0
  outer loop
    vertex 80.09173103114469 -71.29794987101289 9.155971272285852
    vertex 20.09173103114461 -71.29794987101289 -0.8440287277141301
    vertex 80.09173103114469 -71.29794987101289 -0.8440287277141301
  endloop
endfacet
facet normal 0.0 -1.0 0.0
  outer loop
    vertex 20.09173103114461 -71.29794987101289 -0.8440287277141301
    vertex 80.09173103114469 -71.29794987101289 9.155971272285852
    vertex 20.09173103114461 -71.29794987101289 9.155971272285852
  endloop
endfacet
facet normal -0.9214401784656651 -0.38852026653594696 0.0
  outer loop
    vertex 2.456476115520416 -65.3430348428875 9.155971272285852
    vertex 2.9866803051261 -66.60050191776995 -0.8440287277141301
    vertex 2.9866803051261 -66.60050191776995 9.155971272285852
  endloop
endfacet
facet normal -0.9214401784656651 -0.38852026653594696 0.0
  outer loop
    vertex 2.9866803051261 -66.60050191776995 -0.8440287277141301
    vertex 2.456476115520416 -65.3430348428875 9.155971272285852
    vertex 2.456476115520416 -65.3430348428875 -0.8440287277141301
  endloop
endfacet
facet normal 1.0 0.0 0.0
  outer loop
    vertex 98.09173103114465 -61.297949871012776 -0.8440287277141301
    vertex 98.09173103114465 -63.637124178721045 9.155971272285852
    vertex 98.09173103114465 -63.637124178721045 -0.8440287277141301
  endloop
endfacet
facet normal 1.0 0.0 0.0
  outer loop
    vertex 98.09173103114465 -63.637124178721045 9.155971272285852
    vertex 98.09173103114465 -61.297949871012776 -0.8440287277141301
    vertex 98.09173103114465 -61.297949871012776 9.155971272285852
  endloop
endfacet
facet normal -1.0 0.0 0.0
  outer loop
    vertex 2.091731031144629 -61.297949871012776 9.155971272285852
    vertex 2.091731031144629 -63.63712417872099 -0.8440287277141301
    vertex 2.091731031144629 -63.63712417872099 9.155971272285852
  endloop
endfacet
facet normal -1.0 0.0 0.0
  outer loop
    vertex 2.091731031144629 -63.63712417872099 -0.8440287277141301
    vertex 2.091731031144629 -61.297949871012776 9.155971272285852
    vertex 2.091731031144629 -61.297949871012776 -0.8440287277141301
  endloop
endfacet
facet normal -1.0 0.0 0.0
  outer loop
    vertex 20.09173103114461 -69.29794987101289 9.155971272285852
    vertex 20.09173103114461 -71.29794987101289 -0.8440287277141301
    vertex 20.09173103114461 -71.29794987101289 9.155971272285852
  endloop
endfacet
facet normal -1.0 0.0 0.0
  outer loop
    vertex 20.09173103114461 -71.29794987101289 -0.8440287277141301
    vertex 20.09173103114461 -69.29794987101289 9.155971272285852
    vertex 20.09173103114461 -69.29794987101289 -0.8440287277141301
  endloop
endfacet
facet normal 0.9214401784656672 -0.38852026653594235 0.0
  outer loop
    vertex 97.72698594676889 -65.34303484288753 -0.8440287277141301
    vertex 97.19678175716321 -66.60050191776999 9.155971272285852
    vertex 97.19678175716321 -66.60050191776999 -0.8440287277141301
  endloop
endfacet
facet normal 0.9214401784656672 -0.38852026653594235 0.0
  outer loop
    vertex 97.19678175716321 -66.60050191776999 9.155971272285852
    vertex 97.72698594676889 -65.34303484288753 -0.8440287277141301
    vertex 97.72698594676889 -65.34303484288753 9.155971272285852
  endloop
endfacet
facet normal 1.0 0.0 0.0
  outer loop
    vertex 22.59173103114462 -61.297949871012776 -0.8440287277141301
    vertex 22.59173103114462 -63.797949908265714 9.155971272285852
    vertex 22.59173103114462 -63.797949908265714 -0.8440287277141287
  endloop
endfacet
facet normal 1.0 0.0 0.0
  outer loop
    vertex 22.59173103114462 -63.797949908265714 9.155971272285852
    vertex 22.59173103114462 -61.297949871012776 -0.8440287277141301
    vertex 22.59173103114462 -61.297949871012776 9.155971272285852
  endloop
endfacet
facet normal 0.7595836658940389 -0.650409605177363 0.0
  outer loop
    vertex 96.47932925272396 -67.76136445526645 -0.8440287277141301
    vertex 95.59173103114468 -68.79794987101283 9.155971272285852
    vertex 95.59173103114468 -68.79794987101283 -0.8440287277141301
  endloop
endfacet
facet normal 0.7595836658940389 -0.650409605177363 0.0
  outer loop
    vertex 95.59173103114468 -68.79794987101283 9.155971272285852
    vertex 96.47932925272396 -67.76136445526645 -0.8440287277141301
    vertex 96.47932925272396 -67.76136445526645 9.155971272285852
  endloop
endfacet
facet normal 0.0 0.0 1.0
  outer loop
    vertex 90.43090533885263 -71.29794987101289 9.155971272285852
    vertex 86.09173103114468 -69.29794987101289 9.155971272285852
    vertex 86.09173103114468 -71.29794987101289 9.155971272285852
  endloop
endfacet
facet normal 0.0 0.0 1.0
  outer loop
    vertex 80.09173103114469 -71.29794987101289 9.155971272285852
    vertex 20.09173103114461 -69.29794987101289 9.155971272285852
    vertex 20.09173103114461 -71.29794987101289 9.155971272285852
  endloop
endfacet
facet normal 0.0 0.0 1.0
  outer loop
    vertex 20.09173103114461 -69.29794987101289 9.155971272285852
    vertex 80.09173103114469 -71.29794987101289 9.155971272285852
    vertex 25.091731049771084 -66.29794987101282 9.155971272285852
  endloop
endfacet
facet normal 0.0 0.0 1.0
  outer loop
    vertex 20.09173103114461 -69.29794987101289 9.155971272285852
    vertex 25.091731049771084 -66.29794987101282 9.155971272285852
    vertex 24.444683439378725 -66.21276444235984 9.155971272285852
  endloop
endfacet
facet normal 0.0 0.0 1.0
  outer loop
    vertex 20.09173103114461 -69.29794987101289 9.155971272285852
    vertex 24.444683439378725 -66.21276444235984 9.155971272285852
    vertex 23.8417310526526 -65.96301339289154 9.155971272285852
  endloop
endfacet
facet normal 0.0 0.0 1.0
  outer loop
    vertex 20.09173103114461 -69.29794987101289 9.155971272285852
    vertex 23.8417310526526 -65.96301339289154 9.155971272285852
    vertex 23.32396409793459 -65.56571684373552 9.155971272285852
  endloop
endfacet
facet normal 0.0 0.0 1.0
  outer loop
    vertex 20.09173103114461 -69.29794987101289 9.155971272285852
    vertex 23.32396409793459 -65.56571684373552 9.155971272285852
    vertex 22.926667537205567 -65.04794989789778 9.155971272285852
  endloop
endfacet
facet normal 0.0 0.0 1.0
  outer loop
    vertex 20.09173103114461 -69.29794987101289 9.155971272285852
    vertex 22.926667537205567 -65.04794989789778 9.155971272285852
    vertex 22.676916474260228 -64.44499751675403 9.155971272285852
  endloop
endfacet
facet normal 0.0 0.0 1.0
  outer loop
    vertex 20.09173103114461 -69.29794987101289 9.155971272285852
    vertex 22.676916474260228 -64.44499751675403 9.155971272285852
    vertex 22.59173103114462 -63.797949908265714 9.155971272285852
  endloop
endfacet
facet normal 0.0 0.0 1.0
  outer loop
    vertex 25.091731049771084 -66.29794987101282 9.155971272285852
    vertex 80.09173103114469 -71.29794987101289 9.155971272285852
    vertex 25.73877865889408 -66.21276443271809 9.155971272285852
  endloop
endfacet
facet normal 0.0 0.0 1.0
  outer loop
    vertex 25.73877865889408 -66.21276443271809 9.155971272285852
    vertex 80.09173103114469 -71.29794987101289 9.155971272285852
    vertex 26.341731041898623 -65.9630133742651 9.155971272285852
  endloop
endfacet
facet normal 0.0 0.0 1.0
  outer loop
    vertex 26.341731041898623 -65.9630133742651 9.155971272285852
    vertex 80.09173103114469 -71.29794987101289 9.155971272285852
    vertex 26.859497990696457 -65.56571681739374 9.155971272285852
  endloop
endfacet
facet normal 0.0 0.0 1.0
  outer loop
    vertex 26.859497990696457 -65.56571681739374 9.155971272285852
    vertex 80.09173103114469 -71.29794987101289 9.155971272285852
    vertex 27.25679454371015 -65.04794986563581 9.155971272285852
  endloop
endfacet
facet normal 0.0 0.0 1.0
  outer loop
    vertex 27.25679454371015 -65.04794986563581 9.155971272285852
    vertex 80.09173103114469 -71.29794987101289 9.155971272285852
    vertex 27.506545597670794 -64.44499748077048 9.155971272285852
  endloop
endfacet
facet normal 0.0 0.0 1.0
  outer loop
    vertex 27.506545597670794 -64.44499748077048 9.155971272285852
    vertex 80.09173103114469 -71.29794987101289 9.155971272285852
    vertex 27.591731031144644 -63.797949871012804 9.155971272285852
  endloop
endfacet
facet normal 0.0 0.0 1.0
  outer loop
    vertex 27.591731031144644 -63.797949871012804 9.155971272285852
    vertex 80.09173103114469 -71.29794987101289 9.155971272285852
    vertex 27.591731031144644 -61.297949871012776 9.155971272285852
  endloop
endfacet
facet normal 0.0 0.0 1.0
  outer loop
    vertex 27.591731031144644 -61.297949871012776 9.155971272285852
    vertex 80.09173103114469 -71.29794987101289 9.155971272285852
    vertex 73.32396407817832 -65.56571682397912 9.155971272285852
  endloop
endfacet
facet normal 0.0 0.0 1.0
  outer loop
    vertex 27.591731031144644 -61.297949871012776 9.155971272285852
    vertex 73.32396407817832 -65.56571682397912 9.155971272285852
    vertex 72.92666752168358 -65.04794987101276 9.155971272285852
  endloop
endfacet
facet normal 0.0 0.0 1.0
  outer loop
    vertex 27.591731031144644 -61.297949871012776 9.155971272285852
    vertex 72.92666752168358 -65.04794987101276 9.155971272285852
    vertex 72.67691646542202 -64.44499748376906 9.155971272285852
  endloop
endfacet
facet normal 0.0 0.0 1.0
  outer loop
    vertex 27.591731031144644 -61.297949871012776 9.155971272285852
    vertex 72.67691646542202 -64.44499748376906 9.155971272285852
    vertex 72.5917310311447 -63.79794987101277 9.155971272285852
  endloop
endfacet
facet normal 0.0 0.0 1.0
  outer loop
    vertex 73.32396407817832 -65.56571682397912 9.155971272285852
    vertex 80.09173103114469 -71.29794987101289 9.155971272285852
    vertex 73.84173103114469 -65.96301338047384 9.155971272285852
  endloop
endfacet
facet normal 0.0 0.0 1.0
  outer loop
    vertex 73.84173103114469 -65.96301338047384 9.155971272285852
    vertex 80.09173103114469 -71.29794987101289 9.155971272285852
    vertex 74.44468341838838 -66.21276443673541 9.155971272285852
  endloop
endfacet
facet normal 0.0 0.0 1.0
  outer loop
    vertex 74.44468341838838 -66.21276443673541 9.155971272285852
    vertex 80.09173103114469 -71.29794987101289 9.155971272285852
    vertex 75.09173103114468 -66.29794987101275 9.155971272285852
  endloop
endfacet
facet normal 0.0 0.0 1.0
  outer loop
    vertex 75.09173103114468 -66.29794987101275 9.155971272285852
    vertex 80.09173103114469 -71.29794987101289 9.155971272285852
    vertex 75.73877864390096 -66.21276443673541 9.155971272285852
  endloop
endfacet
facet normal 0.0 0.0 1.0
  outer loop
    vertex 75.73877864390096 -66.21276443673541 9.155971272285852
    vertex 80.09173103114469 -71.29794987101289 9.155971272285852
    vertex 76.34173103114466 -65.96301338047384 9.155971272285852
  endloop
endfacet
facet normal 0.0 0.0 1.0
  outer loop
    vertex 76.34173103114466 -65.96301338047384 9.155971272285852
    vertex 80.09173103114469 -71.29794987101289 9.155971272285852
    vertex 76.85949798411102 -65.56571682397912 9.155971272285852
  endloop
endfacet
facet normal 0.0 0.0 1.0
  outer loop
    vertex 76.85949798411102 -65.56571682397912 9.155971272285852
    vertex 80.09173103114469 -71.29794987101289 9.155971272285852
    vertex 77.25679454060572 -65.04794987101276 9.155971272285852
  endloop
endfacet
facet normal 0.0 0.0 1.0
  outer loop
    vertex 77.25679454060572 -65.04794987101276 9.155971272285852
    vertex 80.09173103114469 -71.29794987101289 9.155971272285852
    vertex 77.50654559686731 -64.44499748376906 9.155971272285852
  endloop
endfacet
facet normal 0.0 0.0 1.0
  outer loop
    vertex 77.50654559686731 -64.44499748376906 9.155971272285852
    vertex 80.09173103114469 -71.29794987101289 9.155971272285852
    vertex 77.59173103114465 -63.79794987101277 9.155971272285852
  endloop
endfacet
facet normal 0.0 0.0 1.0
  outer loop
    vertex 77.59173103114465 -63.79794987101277 9.155971272285852
    vertex 80.09173103114469 -71.29794987101289 9.155971272285852
    vertex 77.59173103114465 -61.297949871012776 9.155971272285852
  endloop
endfacet
facet normal 0.0 0.0 1.0
  outer loop
    vertex 77.59173103114465 -61.297949871012776 9.155971272285852
    vertex 80.09173103114469 -71.29794987101289 9.155971272285852
    vertex 80.09173103114469 -69.29794987101289 9.155971272285852
  endloop
endfacet
facet normal 0.0 0.0 1.0
  outer loop
    vertex 77.59173103114465 -61.297949871012776 9.155971272285852
    vertex 80.09173103114469 -69.29794987101289 9.155971272285852
    vertex 98.09173103114465 -61.297949871012776 9.155971272285852
  endloop
endfacet
facet normal 0.0 0.0 1.0
  outer loop
    vertex 98.09173103114465 -61.297949871012776 9.155971272285852
    vertex 80.09173103114469 -69.29794987101289 9.155971272285852
    vertex 86.09173103114468 -69.29794987101289 9.155971272285852
  endloop
endfacet
facet normal 0.0 0.0 1.0
  outer loop
    vertex 98.09173103114465 -61.297949871012776 9.155971272285852
    vertex 86.09173103114468 -69.29794987101289 9.155971272285852
    vertex 90.43090533885263 -71.29794987101289 9.155971272285852
  endloop
endfacet
facet normal 0.0 0.0 1.0
  outer loop
    vertex 98.09173103114465 -61.297949871012776 9.155971272285852
    vertex 90.43090533885263 -71.29794987101289 9.155971272285852
    vertex 90.81271982935006 -71.263521679882 9.155971272285852
  endloop
endfacet
facet normal 0.0 0.0 1.0
  outer loop
    vertex 98.09173103114465 -61.297949871012776 9.155971272285852
    vertex 90.81271982935006 -71.263521679882 9.155971272285852
    vertex 92.1368160030194 -70.93320478663708 9.155971272285852
  endloop
endfacet
facet normal 0.0 0.0 1.0
  outer loop
    vertex 98.09173103114465 -61.297949871012776 9.155971272285852
    vertex 92.1368160030194 -70.93320478663708 9.155971272285852
    vertex 93.39428307790186 -70.40300059703138 9.155971272285852
  endloop
endfacet
facet normal 0.0 0.0 1.0
  outer loop
    vertex 98.09173103114465 -61.297949871012776 9.155971272285852
    vertex 93.39428307790186 -70.40300059703138 9.155971272285852
    vertex 94.55514561539829 -69.68554809259211 9.155971272285852
  endloop
endfacet
facet normal 0.0 0.0 1.0
  outer loop
    vertex 98.09173103114465 -61.297949871012776 9.155971272285852
    vertex 94.55514561539829 -69.68554809259211 9.155971272285852
    vertex 95.59173103114468 -68.79794987101283 9.155971272285852
  endloop
endfacet
facet normal 0.0 0.0 1.0
  outer loop
    vertex 98.09173103114465 -61.297949871012776 9.155971272285852
    vertex 95.59173103114468 -68.79794987101283 9.155971272285852
    vertex 96.47932925272396 -67.76136445526645 9.155971272285852
  endloop
endfacet
facet normal 0.0 0.0 1.0
  outer loop
    vertex 98.09173103114465 -61.297949871012776 9.155971272285852
    vertex 96.47932925272396 -67.76136445526645 9.155971272285852
    vertex 97.19678175716321 -66.60050191776999 9.155971272285852
  endloop
endfacet
facet normal 0.0 0.0 1.0
  outer loop
    vertex 98.09173103114465 -61.297949871012776 9.155971272285852
    vertex 97.19678175716321 -66.60050191776999 9.155971272285852
    vertex 97.72698594676889 -65.34303484288753 9.155971272285852
  endloop
endfacet
facet normal 0.0 0.0 1.0
  outer loop
    vertex 98.09173103114465 -61.297949871012776 9.155971272285852
    vertex 97.72698594676889 -65.34303484288753 9.155971272285852
    vertex 98.05730284001379 -64.01893866921816 9.155971272285852
  endloop
endfacet
facet normal 0.0 0.0 1.0
  outer loop
    vertex 98.09173103114465 -61.297949871012776 9.155971272285852
    vertex 98.05730284001379 -64.01893866921816 9.155971272285852
    vertex 98.09173103114465 -63.637124178721045 9.155971272285852
  endloop
endfacet
facet normal 0.0 0.0 1.0
  outer loop
    vertex 72.5917310311447 -61.297949871012776 9.155971272285852
    vertex 27.591731031144644 -61.297949871012776 9.155971272285852
    vertex 72.5917310311447 -63.79794987101277 9.155971272285852
  endloop
endfacet
facet normal 0.0 0.0 1.0
  outer loop
    vertex 2.1261592222754913 -64.01893866921816 9.155971272285852
    vertex 2.091731031144629 -61.297949871012776 9.155971272285852
    vertex 2.091731031144629 -63.63712417872099 9.155971272285852
  endloop
endfacet
facet normal 0.0 0.0 1.0
  outer loop
    vertex 2.091731031144629 -61.297949871012776 9.155971272285852
    vertex 2.1261592222754913 -64.01893866921816 9.155971272285852
    vertex 22.59173103114462 -61.297949871012776 9.155971272285852
  endloop
endfacet
facet normal 0.0 0.0 1.0
  outer loop
    vertex 22.59173103114462 -61.297949871012776 9.155971272285852
    vertex 2.1261592222754913 -64.01893866921816 9.155971272285852
    vertex 2.456476115520416 -65.3430348428875 9.155971272285852
  endloop
endfacet
facet normal 0.0 0.0 1.0
  outer loop
    vertex 22.59173103114462 -61.297949871012776 9.155971272285852
    vertex 2.456476115520416 -65.3430348428875 9.155971272285852
    vertex 2.9866803051261 -66.60050191776995 9.155971272285852
  endloop
endfacet
facet normal 0.0 0.0 1.0
  outer loop
    vertex 22.59173103114462 -61.297949871012776 9.155971272285852
    vertex 2.9866803051261 -66.60050191776995 9.155971272285852
    vertex 3.7041328095653476 -67.76136445526639 9.155971272285852
  endloop
endfacet
facet normal 0.0 0.0 1.0
  outer loop
    vertex 22.59173103114462 -61.297949871012776 9.155971272285852
    vertex 3.7041328095653476 -67.76136445526639 9.155971272285852
    vertex 4.591731031144619 -68.79794987101279 9.155971272285852
  endloop
endfacet
facet normal 0.0 0.0 1.0
  outer loop
    vertex 22.59173103114462 -61.297949871012776 9.155971272285852
    vertex 4.591731031144619 -68.79794987101279 9.155971272285852
    vertex 5.628316446891017 -69.68554809259207 9.155971272285852
  endloop
endfacet
facet normal 0.0 0.0 1.0
  outer loop
    vertex 22.59173103114462 -61.297949871012776 9.155971272285852
    vertex 5.628316446891017 -69.68554809259207 9.155971272285852
    vertex 6.789178984387463 -70.40300059703131 9.155971272285852
  endloop
endfacet
facet normal 0.0 0.0 1.0
  outer loop
    vertex 22.59173103114462 -61.297949871012776 9.155971272285852
    vertex 6.789178984387463 -70.40300059703131 9.155971272285852
    vertex 8.046646059269902 -70.93320478663699 9.155971272285852
  endloop
endfacet
facet normal 0.0 0.0 1.0
  outer loop
    vertex 22.59173103114462 -61.297949871012776 9.155971272285852
    vertex 8.046646059269902 -70.93320478663699 9.155971272285852
    vertex 9.37074223293926 -71.26352167988189 9.155971272285852
  endloop
endfacet
facet normal 0.0 0.0 1.0
  outer loop
    vertex 22.59173103114462 -61.297949871012776 9.155971272285852
    vertex 9.37074223293926 -71.26352167988189 9.155971272285852
    vertex 9.752556723436472 -71.29794987101278 9.155971272285852
  endloop
endfacet
facet normal 0.0 0.0 1.0
  outer loop
    vertex 22.59173103114462 -61.297949871012776 9.155971272285852
    vertex 9.752556723436472 -71.29794987101278 9.155971272285852
    vertex 14.091731031144624 -69.29794987101289 9.155971272285852
  endloop
endfacet
facet normal 0.0 0.0 1.0
  outer loop
    vertex 14.091731031144624 -69.29794987101289 9.155971272285852
    vertex 9.752556723436472 -71.29794987101278 9.155971272285852
    vertex 14.091731031144624 -71.29794987101289 9.155971272285852
  endloop
endfacet
facet normal 0.0 0.0 1.0
  outer loop
    vertex 22.59173103114462 -61.297949871012776 9.155971272285852
    vertex 14.091731031144624 -69.29794987101289 9.155971272285852
    vertex 20.09173103114461 -69.29794987101289 9.155971272285852
  endloop
endfacet
facet normal 0.0 0.0 1.0
  outer loop
    vertex 22.59173103114462 -61.297949871012776 9.155971272285852
    vertex 20.09173103114461 -69.29794987101289 9.155971272285852
    vertex 22.59173103114462 -63.797949908265714 9.155971272285852
  endloop
endfacet
facet normal -0.5257311121191302 -0.8506508083520422 0.0
  outer loop
    vertex 6.789178984387463 -70.40300059703131 9.155971272285852
    vertex 5.628316446891017 -69.68554809259207 -0.8440287277141301
    vertex 6.789178984387463 -70.40300059703131 -0.8440287277141301
  endloop
endfacet
facet normal -0.5257311121191302 -0.8506508083520422 0.0
  outer loop
    vertex 5.628316446891017 -69.68554809259207 -0.8440287277141301
    vertex 6.789178984387463 -70.40300059703131 9.155971272285852
    vertex 5.628316446891017 -69.68554809259207 9.155971272285852
  endloop
endfacet
facet normal 0.0 -1.0 0.0
  outer loop
    vertex 86.09173103114468 -69.29794987101289 9.155971272285852
    vertex 80.09173103114469 -69.29794987101289 -0.8440287277141301
    vertex 86.09173103114468 -69.29794987101289 -0.8440287277141301
  endloop
endfacet
facet normal 0.0 -1.0 0.0
  outer loop
    vertex 80.09173103114469 -69.29794987101289 -0.8440287277141301
    vertex 86.09173103114468 -69.29794987101289 9.155971272285852
    vertex 80.09173103114469 -69.29794987101289 9.155971272285852
  endloop
endfacet
facet normal 0.08980559531590943 -0.9959593139531129 0.0
  outer loop
    vertex 90.81271982935006 -71.263521679882 9.155971272285852
    vertex 90.43090533885263 -71.29794987101289 -0.8440287277141301
    vertex 90.81271982935006 -71.263521679882 -0.8440287277141301
  endloop
endfacet
facet normal 0.08980559531590943 -0.9959593139531129 0.0
  outer loop
    vertex 90.43090533885263 -71.29794987101289 -0.8440287277141301
    vertex 90.81271982935006 -71.263521679882 9.155971272285852
    vertex 90.43090533885263 -71.29794987101289 9.155971272285852
  endloop
endfacet
facet normal -3.648670090101116e-18 -3.651391488012356e-17 -1.0
  outer loop
    vertex 14.091731031144624 -71.29794987101289 -0.8440287277141301
    vertex 9.752556723436472 -71.29794987101278 -0.8440287277141301
    vertex 14.091731031144624 -69.29794987101289 -0.8440287277141301
  endloop
endfacet
facet normal -3.648670090101116e-18 -3.651391488012356e-17 -1.0
  outer loop
    vertex 72.5917310311447 -61.297949871012776 -0.8440287277141301
    vertex 27.591731031144644 -63.797949871012804 -0.8440287277141287
    vertex 27.591731031144644 -61.297949871012776 -0.8440287277141301
  endloop
endfacet
facet normal -3.648670090101116e-18 -3.651391488012356e-17 -1.0
  outer loop
    vertex 27.591731031144644 -63.797949871012804 -0.8440287277141287
    vertex 72.5917310311447 -61.297949871012776 -0.8440287277141301
    vertex 27.591731031144644 -66.29794987101283 -0.8440287277141301
  endloop
endfacet
facet normal -3.648670090101116e-18 -3.651391488012356e-17 -1.0
  outer loop
    vertex 98.09173103114465 -61.297949871012776 -0.8440287277141301
    vertex 77.59173103114465 -63.79794987101277 -0.8440287277141357
    vertex 77.59173103114465 -61.297949871012776 -0.8440287277141301
  endloop
endfacet
facet normal -3.648670090101116e-18 -3.651391488012356e-17 -1.0
  outer loop
    vertex 77.59173103114465 -63.79794987101277 -0.8440287277141357
    vertex 98.09173103114465 -61.297949871012776 -0.8440287277141301
    vertex 77.59173103114465 -66.29794987101276 -0.8440287277141301
  endloop
endfacet
facet normal -3.648670090101116e-18 -3.651391488012356e-17 -1.0
  outer loop
    vertex 77.59173103114465 -66.29794987101276 -0.8440287277141301
    vertex 98.09173103114465 -61.297949871012776 -0.8440287277141301
    vertex 80.09173103114469 -69.29794987101289 -0.8440287277141301
  endloop
endfacet
facet normal -3.648670090101116e-18 -3.651391488012356e-17 -1.0
  outer loop
    vertex 80.09173103114469 -69.29794987101289 -0.8440287277141301
    vertex 98.09173103114465 -61.297949871012776 -0.8440287277141301
    vertex 86.09173103114468 -69.29794987101289 -0.8440287277141301
  endloop
endfacet
facet normal -3.648670090101116e-18 -3.651391488012356e-17 -1.0
  outer loop
    vertex 86.09173103114468 -69.29794987101289 -0.8440287277141301
    vertex 98.09173103114465 -61.297949871012776 -0.8440287277141301
    vertex 86.09173103114468 -71.29794987101289 -0.8440287277141301
  endloop
endfacet
facet normal -3.648670090101116e-18 -3.651391488012356e-17 -1.0
  outer loop
    vertex 86.09173103114468 -71.29794987101289 -0.8440287277141301
    vertex 98.09173103114465 -61.297949871012776 -0.8440287277141301
    vertex 90.43090533885263 -71.29794987101289 -0.8440287277141301
  endloop
endfacet
facet normal -3.648670090101116e-18 -3.651391488012356e-17 -1.0
  outer loop
    vertex 90.43090533885263 -71.29794987101289 -0.8440287277141301
    vertex 98.09173103114465 -61.297949871012776 -0.8440287277141301
    vertex 90.81271982935006 -71.263521679882 -0.8440287277141301
  endloop
endfacet
facet normal -3.648670090101116e-18 -3.651391488012356e-17 -1.0
  outer loop
    vertex 90.81271982935006 -71.263521679882 -0.8440287277141301
    vertex 98.09173103114465 -61.297949871012776 -0.8440287277141301
    vertex 92.1368160030194 -70.93320478663708 -0.8440287277141301
  endloop
endfacet
facet normal -3.648670090101116e-18 -3.651391488012356e-17 -1.0
  outer loop
    vertex 92.1368160030194 -70.93320478663708 -0.8440287277141301
    vertex 98.09173103114465 -61.297949871012776 -0.8440287277141301
    vertex 93.39428307790186 -70.40300059703138 -0.8440287277141301
  endloop
endfacet
facet normal -3.648670090101116e-18 -3.651391488012356e-17 -1.0
  outer loop
    vertex 93.39428307790186 -70.40300059703138 -0.8440287277141301
    vertex 98.09173103114465 -61.297949871012776 -0.8440287277141301
    vertex 94.55514561539829 -69.68554809259211 -0.8440287277141301
  endloop
endfacet
facet normal -3.648670090101116e-18 -3.651391488012356e-17 -1.0
  outer loop
    vertex 94.55514561539829 -69.68554809259211 -0.8440287277141301
    vertex 98.09173103114465 -61.297949871012776 -0.8440287277141301
    vertex 95.59173103114468 -68.79794987101283 -0.8440287277141301
  endloop
endfacet
facet normal -3.648670090101116e-18 -3.651391488012356e-17 -1.0
  outer loop
    vertex 95.59173103114468 -68.79794987101283 -0.8440287277141301
    vertex 98.09173103114465 -61.297949871012776 -0.8440287277141301
    vertex 96.47932925272396 -67.76136445526645 -0.8440287277141301
  endloop
endfacet
facet normal -3.648670090101116e-18 -3.651391488012356e-17 -1.0
  outer loop
    vertex 96.47932925272396 -67.76136445526645 -0.8440287277141301
    vertex 98.09173103114465 -61.297949871012776 -0.8440287277141301
    vertex 97.19678175716321 -66.60050191776999 -0.8440287277141301
  endloop
endfacet
facet normal -3.648670090101116e-18 -3.651391488012356e-17 -1.0
  outer loop
    vertex 97.19678175716321 -66.60050191776999 -0.8440287277141301
    vertex 98.09173103114465 -61.297949871012776 -0.8440287277141301
    vertex 97.72698594676889 -65.34303484288753 -0.8440287277141301
  endloop
endfacet
facet normal -3.648670090101116e-18 -3.651391488012356e-17 -1.0
  outer loop
    vertex 97.72698594676889 -65.34303484288753 -0.8440287277141301
    vertex 98.09173103114465 -61.297949871012776 -0.8440287277141301
    vertex 98.05730284001379 -64.01893866921816 -0.8440287277141301
  endloop
endfacet
facet normal -3.648670090101116e-18 -3.651391488012356e-17 -1.0
  outer loop
    vertex 98.05730284001379 -64.01893866921816 -0.8440287277141301
    vertex 98.09173103114465 -61.297949871012776 -0.8440287277141301
    vertex 98.09173103114465 -63.637124178721045 -0.8440287277141301
  endloop
endfacet
facet normal -3.648670090101116e-18 -3.651391488012356e-17 -1.0
  outer loop
    vertex 22.59173103114462 -61.297949871012776 -0.8440287277141301
    vertex 2.091731031144629 -63.63712417872099 -0.8440287277141301
    vertex 2.091731031144629 -61.297949871012776 -0.8440287277141301
  endloop
endfacet
facet normal -3.648670090101116e-18 -3.651391488012356e-17 -1.0
  outer loop
    vertex 2.091731031144629 -63.63712417872099 -0.8440287277141301
    vertex 22.59173103114462 -61.297949871012776 -0.8440287277141301
    vertex 2.1261592222754913 -64.01893866921816 -0.8440287277141301
  endloop
endfacet
facet normal -3.648670090101116e-18 -3.651391488012356e-17 -1.0
  outer loop
    vertex 2.1261592222754913 -64.01893866921816 -0.8440287277141301
    vertex 22.59173103114462 -61.297949871012776 -0.8440287277141301
    vertex 2.456476115520416 -65.3430348428875 -0.8440287277141301
  endloop
endfacet
facet normal -3.648670090101116e-18 -3.651391488012356e-17 -1.0
  outer loop
    vertex 2.456476115520416 -65.3430348428875 -0.8440287277141301
    vertex 22.59173103114462 -61.297949871012776 -0.8440287277141301
    vertex 2.9866803051261 -66.60050191776995 -0.8440287277141301
  endloop
endfacet
facet normal -3.648670090101116e-18 -3.651391488012356e-17 -1.0
  outer loop
    vertex 2.9866803051261 -66.60050191776995 -0.8440287277141301
    vertex 22.59173103114462 -61.297949871012776 -0.8440287277141301
    vertex 3.7041328095653476 -67.76136445526639 -0.8440287277141301
  endloop
endfacet
facet normal -3.648670090101116e-18 -3.651391488012356e-17 -1.0
  outer loop
    vertex 3.7041328095653476 -67.76136445526639 -0.8440287277141301
    vertex 22.59173103114462 -61.297949871012776 -0.8440287277141301
    vertex 4.591731031144619 -68.79794987101279 -0.8440287277141301
  endloop
endfacet
facet normal -3.648670090101116e-18 -3.651391488012356e-17 -1.0
  outer loop
    vertex 4.591731031144619 -68.79794987101279 -0.8440287277141301
    vertex 22.59173103114462 -61.297949871012776 -0.8440287277141301
    vertex 5.628316446891017 -69.68554809259207 -0.8440287277141301
  endloop
endfacet
facet normal -3.648670090101116e-18 -3.651391488012356e-17 -1.0
  outer loop
    vertex 5.628316446891017 -69.68554809259207 -0.8440287277141301
    vertex 22.59173103114462 -61.297949871012776 -0.8440287277141301
    vertex 6.789178984387463 -70.40300059703131 -0.8440287277141301
  endloop
endfacet
facet normal -3.648670090101116e-18 -3.651391488012356e-17 -1.0
  outer loop
    vertex 6.789178984387463 -70.40300059703131 -0.8440287277141301
    vertex 22.59173103114462 -61.297949871012776 -0.8440287277141301
    vertex 8.046646059269902 -70.93320478663699 -0.8440287277141301
  endloop
endfacet
facet normal -3.648670090101116e-18 -3.651391488012356e-17 -1.0
  outer loop
    vertex 8.046646059269902 -70.93320478663699 -0.8440287277141301
    vertex 22.59173103114462 -61.297949871012776 -0.8440287277141301
    vertex 9.37074223293926 -71.26352167988189 -0.8440287277141301
  endloop
endfacet
facet normal -3.648670090101116e-18 -3.651391488012356e-17 -1.0
  outer loop
    vertex 9.37074223293926 -71.26352167988189 -0.8440287277141301
    vertex 22.59173103114462 -61.297949871012776 -0.8440287277141301
    vertex 9.752556723436472 -71.29794987101278 -0.8440287277141301
  endloop
endfacet
facet normal -3.648670090101116e-18 -3.651391488012356e-17 -1.0
  outer loop
    vertex 9.752556723436472 -71.29794987101278 -0.8440287277141301
    vertex 22.59173103114462 -61.297949871012776 -0.8440287277141301
    vertex 14.091731031144624 -69.29794987101289 -0.8440287277141301
  endloop
endfacet
facet normal -3.648670090101116e-18 -3.651391488012356e-17 -1.0
  outer loop
    vertex 14.091731031144624 -69.29794987101289 -0.8440287277141301
    vertex 22.59173103114462 -61.297949871012776 -0.8440287277141301
    vertex 20.09173103114461 -69.29794987101289 -0.8440287277141301
  endloop
endfacet
facet normal -3.648670090101116e-18 -3.651391488012356e-17 -1.0
  outer loop
    vertex 20.09173103114461 -69.29794987101289 -0.8440287277141301
    vertex 22.59173103114462 -61.297949871012776 -0.8440287277141301
    vertex 20.09173103114461 -71.29794987101289 -0.8440287277141301
  endloop
endfacet
facet normal -3.648670090101116e-18 -3.651391488012356e-17 -1.0
  outer loop
    vertex 20.09173103114461 -71.29794987101289 -0.8440287277141301
    vertex 22.59173103114462 -61.297949871012776 -0.8440287277141301
    vertex 22.59173103114462 -66.29794987101283 -0.8440287277141301
  endloop
endfacet
facet normal -3.648670090101116e-18 -3.651391488012356e-17 -1.0
  outer loop
    vertex 20.09173103114461 -71.29794987101289 -0.8440287277141301
    vertex 22.59173103114462 -66.29794987101283 -0.8440287277141301
    vertex 22.67691646622543 -66.94499748676776 -0.8440287277141301
  endloop
endfacet
facet normal -3.648670090101116e-18 -3.651391488012356e-17 -1.0
  outer loop
    vertex 20.09173103114461 -71.29794987101289 -0.8440287277141301
    vertex 22.67691646622543 -66.94499748676776 -0.8440287277141301
    vertex 22.92666752478793 -67.54794987638984 -0.8440287277141301
  endloop
endfacet
facet normal -3.648670090101116e-18 -3.651391488012356e-17 -1.0
  outer loop
    vertex 20.09173103114461 -71.29794987101289 -0.8440287277141301
    vertex 22.92666752478793 -67.54794987638984 -0.8440287277141301
    vertex 23.3239640847637 -68.06571683056467 -0.8440287277141301
  endloop
endfacet
facet normal -3.648670090101116e-18 -3.651391488012356e-17 -1.0
  outer loop
    vertex 20.09173103114461 -71.29794987101289 -0.8440287277141301
    vertex 23.3239640847637 -68.06571683056467 -0.8440287277141301
    vertex 23.841731041898605 -68.46301338668276 -0.8440287277141301
  endloop
endfacet
facet normal -3.648670090101116e-18 -3.651391488012356e-17 -1.0
  outer loop
    vertex 20.09173103114461 -71.29794987101289 -0.8440287277141301
    vertex 23.841731041898605 -68.46301338668276 -0.8440287277141301
    vertex 24.444683433381456 -68.7127644407529 -0.8440287277141301
  endloop
endfacet
facet normal -3.648670090101116e-18 -3.651391488012356e-17 -1.0
  outer loop
    vertex 20.09173103114461 -71.29794987101289 -0.8440287277141301
    vertex 24.444683433381456 -68.7127644407529 -0.8440287277141301
    vertex 25.09173104977108 -68.79794987101285 -0.8440287277141301
  endloop
endfacet
facet normal -3.648670090101116e-18 -3.651391488012356e-17 -1.0
  outer loop
    vertex 20.09173103114461 -71.29794987101289 -0.8440287277141301
    vertex 25.09173104977108 -68.79794987101285 -0.8440287277141301
    vertex 80.09173103114469 -71.29794987101289 -0.8440287277141301
  endloop
endfacet
facet normal -3.648670090101116e-18 -3.651391488012356e-17 -1.0
  outer loop
    vertex 22.59173103114462 -66.29794987101283 -0.8440287277141301
    vertex 22.59173103114462 -61.297949871012776 -0.8440287277141301
    vertex 22.59173103114462 -63.797949908265714 -0.8440287277141287
  endloop
endfacet
facet normal -3.648670090101116e-18 -3.651391488012356e-17 -1.0
  outer loop
    vertex 80.09173103114469 -71.29794987101289 -0.8440287277141301
    vertex 25.09173104977108 -68.79794987101285 -0.8440287277141301
    vertex 25.73877866489133 -68.71276443111115 -0.8440287277141301
  endloop
endfacet
facet normal -3.648670090101116e-18 -3.651391488012356e-17 -1.0
  outer loop
    vertex 80.09173103114469 -71.29794987101289 -0.8440287277141301
    vertex 25.73877866489133 -68.71276443111115 -0.8440287277141301
    vertex 26.34173105265261 -68.46301336805632 -0.8440287277141301
  endloop
endfacet
facet normal -3.648670090101116e-18 -3.651391488012356e-17 -1.0
  outer loop
    vertex 80.09173103114469 -71.29794987101289 -0.8440287277141301
    vertex 26.34173105265261 -68.46301336805632 -0.8440287277141301
    vertex 26.859498003867348 -68.06571680422289 -0.8440287277141301
  endloop
endfacet
facet normal -3.648670090101116e-18 -3.651391488012356e-17 -1.0
  outer loop
    vertex 80.09173103114469 -71.29794987101289 -0.8440287277141301
    vertex 26.859498003867348 -68.06571680422289 -0.8440287277141301
    vertex 27.256794556127787 -67.54794984412787 -0.8440287277141301
  endloop
endfacet
facet normal -3.648670090101116e-18 -3.651391488012356e-17 -1.0
  outer loop
    vertex 80.09173103114469 -71.29794987101289 -0.8440287277141301
    vertex 27.256794556127787 -67.54794984412787 -0.8440287277141301
    vertex 27.506545605705593 -66.94499745078423 -0.8440287277141301
  endloop
endfacet
facet normal -3.648670090101116e-18 -3.651391488012356e-17 -1.0
  outer loop
    vertex 80.09173103114469 -71.29794987101289 -0.8440287277141301
    vertex 27.506545605705593 -66.94499745078423 -0.8440287277141301
    vertex 27.591731031144644 -66.29794987101283 -0.8440287277141301
  endloop
endfacet
facet normal -3.648670090101116e-18 -3.651391488012356e-17 -1.0
  outer loop
    vertex 80.09173103114469 -71.29794987101289 -0.8440287277141301
    vertex 27.591731031144644 -66.29794987101283 -0.8440287277141301
    vertex 73.84173103114458 -68.46301338047397 -0.8440287277141301
  endloop
endfacet
facet normal -3.648670090101116e-18 -3.651391488012356e-17 -1.0
  outer loop
    vertex 73.84173103114458 -68.46301338047397 -0.8440287277141301
    vertex 27.591731031144644 -66.29794987101283 -0.8440287277141301
    vertex 73.32396407817828 -68.0657168239792 -0.8440287277141301
  endloop
endfacet
facet normal -3.648670090101116e-18 -3.651391488012356e-17 -1.0
  outer loop
    vertex 73.32396407817828 -68.0657168239792 -0.8440287277141301
    vertex 27.591731031144644 -66.29794987101283 -0.8440287277141301
    vertex 72.92666752168351 -67.54794987101289 -0.8440287277141301
  endloop
endfacet
facet normal -3.648670090101116e-18 -3.651391488012356e-17 -1.0
  outer loop
    vertex 72.92666752168351 -67.54794987101289 -0.8440287277141301
    vertex 27.591731031144644 -66.29794987101283 -0.8440287277141301
    vertex 72.67691646542202 -66.9449974837691 -0.8440287277141301
  endloop
endfacet
facet normal -3.648670090101116e-18 -3.651391488012356e-17 -1.0
  outer loop
    vertex 72.67691646542202 -66.9449974837691 -0.8440287277141301
    vertex 27.591731031144644 -66.29794987101283 -0.8440287277141301
    vertex 72.5917310311447 -66.29794987101276 -0.8440287277141301
  endloop
endfacet
facet normal -3.648670090101116e-18 -3.651391488012356e-17 -1.0
  outer loop
    vertex 72.5917310311447 -66.29794987101276 -0.8440287277141301
    vertex 27.591731031144644 -66.29794987101283 -0.8440287277141301
    vertex 72.5917310311447 -61.297949871012776 -0.8440287277141301
  endloop
endfacet
facet normal -3.648670090101116e-18 -3.651391488012356e-17 -1.0
  outer loop
    vertex 72.5917310311447 -66.29794987101276 -0.8440287277141301
    vertex 72.5917310311447 -61.297949871012776 -0.8440287277141301
    vertex 72.5917310311447 -63.79794987101277 -0.844028727714133
  endloop
endfacet
facet normal -3.648670090101116e-18 -3.651391488012356e-17 -1.0
  outer loop
    vertex 80.09173103114469 -71.29794987101289 -0.8440287277141301
    vertex 73.84173103114458 -68.46301338047397 -0.8440287277141301
    vertex 74.44468341838822 -68.71276443673554 -0.8440287277141301
  endloop
endfacet
facet normal -3.648670090101116e-18 -3.651391488012356e-17 -1.0
  outer loop
    vertex 80.09173103114469 -71.29794987101289 -0.8440287277141301
    vertex 74.44468341838822 -68.71276443673554 -0.8440287277141301
    vertex 75.09173103114468 -68.79794987101288 -0.8440287277141301
  endloop
endfacet
facet normal -3.648670090101116e-18 -3.651391488012356e-17 -1.0
  outer loop
    vertex 80.09173103114469 -71.29794987101289 -0.8440287277141301
    vertex 75.09173103114468 -68.79794987101288 -0.8440287277141301
    vertex 75.73877864390091 -68.71276443673554 -0.8440287277141301
  endloop
endfacet
facet normal -3.648670090101116e-18 -3.651391488012356e-17 -1.0
  outer loop
    vertex 80.09173103114469 -71.29794987101289 -0.8440287277141301
    vertex 75.73877864390091 -68.71276443673554 -0.8440287277141301
    vertex 76.34173103114456 -68.46301338047397 -0.8440287277141301
  endloop
endfacet
facet normal -3.648670090101116e-18 -3.651391488012356e-17 -1.0
  outer loop
    vertex 80.09173103114469 -71.29794987101289 -0.8440287277141301
    vertex 76.34173103114456 -68.46301338047397 -0.8440287277141301
    vertex 76.85949798411106 -68.0657168239792 -0.8440287277141301
  endloop
endfacet
facet normal -3.648670090101116e-18 -3.651391488012356e-17 -1.0
  outer loop
    vertex 80.09173103114469 -71.29794987101289 -0.8440287277141301
    vertex 76.85949798411106 -68.0657168239792 -0.8440287277141301
    vertex 77.25679454060564 -67.54794987101289 -0.8440287277141301
  endloop
endfacet
facet normal -3.648670090101116e-18 -3.651391488012356e-17 -1.0
  outer loop
    vertex 80.09173103114469 -71.29794987101289 -0.8440287277141301
    vertex 77.25679454060564 -67.54794987101289 -0.8440287277141301
    vertex 77.50654559686731 -66.9449974837691 -0.8440287277141301
  endloop
endfacet
facet normal -3.648670090101116e-18 -3.651391488012356e-17 -1.0
  outer loop
    vertex 80.09173103114469 -71.29794987101289 -0.8440287277141301
    vertex 77.50654559686731 -66.9449974837691 -0.8440287277141301
    vertex 77.59173103114465 -66.29794987101276 -0.8440287277141301
  endloop
endfacet
facet normal -3.648670090101116e-18 -3.651391488012356e-17 -1.0
  outer loop
    vertex 80.09173103114469 -71.29794987101289 -0.8440287277141301
    vertex 77.59173103114465 -66.29794987101276 -0.8440287277141301
    vertex 80.09173103114469 -69.29794987101289 -0.8440287277141301
  endloop
endfacet
facet normal -0.7595836658940411 -0.6504096051773606 0.0
  outer loop
    vertex 3.7041328095653476 -67.76136445526639 9.155971272285852
    vertex 4.591731031144619 -68.79794987101279 -0.8440287277141301
    vertex 4.591731031144619 -68.79794987101279 9.155971272285852
  endloop
endfacet
facet normal -0.7595836658940411 -0.6504096051773606 0.0
  outer loop
    vertex 4.591731031144619 -68.79794987101279 -0.8440287277141301
    vertex 3.7041328095653476 -67.76136445526639 9.155971272285852
    vertex 3.7041328095653476 -67.76136445526639 -0.8440287277141301
  endloop
endfacet
facet normal 0.0 1.0 0.0
  outer loop
    vertex 2.091731031144629 -61.297949871012776 9.155971272285852
    vertex 22.59173103114462 -61.297949871012776 -0.8440287277141301
    vertex 2.091731031144629 -61.297949871012776 -0.8440287277141301
  endloop
endfacet
facet normal 0.0 1.0 0.0
  outer loop
    vertex 22.59173103114462 -61.297949871012776 -0.8440287277141301
    vertex 2.091731031144629 -61.297949871012776 9.155971272285852
    vertex 22.59173103114462 -61.297949871012776 9.155971272285852
  endloop
endfacet
facet normal 0.5257311121191502 -0.8506508083520297 0.0
  outer loop
    vertex 94.55514561539829 -69.68554809259211 9.155971272285852
    vertex 93.39428307790186 -70.40300059703138 -0.8440287277141301
    vertex 94.55514561539829 -69.68554809259211 -0.8440287277141301
  endloop
endfacet
facet normal 0.5257311121191502 -0.8506508083520297 0.0
  outer loop
    vertex 93.39428307790186 -70.40300059703138 -0.8440287277141301
    vertex 94.55514561539829 -69.68554809259211 9.155971272285852
    vertex 93.39428307790186 -70.40300059703138 9.155971272285852
  endloop
endfacet
facet normal -0.6504096051773609 -0.7595836658940407 0.0
  outer loop
    vertex 5.628316446891017 -69.68554809259207 9.155971272285852
    vertex 4.591731031144619 -68.79794987101279 -0.8440287277141301
    vertex 5.628316446891017 -69.68554809259207 -0.8440287277141301
  endloop
endfacet
facet normal -0.6504096051773609 -0.7595836658940407 0.0
  outer loop
    vertex 4.591731031144619 -68.79794987101279 -0.8440287277141301
    vertex 5.628316446891017 -69.68554809259207 9.155971272285852
    vertex 4.591731031144619 -68.79794987101279 9.155971272285852
  endloop
endfacet
facet normal -0.24204789385063047 -0.9702643026941031 0.0
  outer loop
    vertex 9.37074223293926 -71.26352167988189 9.155971272285852
    vertex 8.046646059269902 -70.93320478663699 -0.8440287277141301
    vertex 9.37074223293926 -71.26352167988189 -0.8440287277141301
  endloop
endfacet
facet normal -0.24204789385063047 -0.9702643026941031 0.0
  outer loop
    vertex 8.046646059269902 -70.93320478663699 -0.8440287277141301
    vertex 9.37074223293926 -71.26352167988189 9.155971272285852
    vertex 8.046646059269902 -70.93320478663699 9.155971272285852
  endloop
endfacet
facet normal 1.0 0.0 0.0
  outer loop
    vertex 80.09173103114469 -69.29794987101289 -0.8440287277141301
    vertex 80.09173103114469 -71.29794987101289 9.155971272285852
    vertex 80.09173103114469 -71.29794987101289 -0.8440287277141301
  endloop
endfacet
facet normal 1.0 0.0 0.0
  outer loop
    vertex 80.09173103114469 -71.29794987101289 9.155971272285852
    vertex 80.09173103114469 -69.29794987101289 -0.8440287277141301
    vertex 80.09173103114469 -69.29794987101289 9.155971272285852
  endloop
endfacet
facet normal -0.8506508083520418 -0.5257311121191309 0.0
  outer loop
    vertex 2.9866803051261 -66.60050191776995 9.155971272285852
    vertex 3.7041328095653476 -67.76136445526639 -0.8440287277141301
    vertex 3.7041328095653476 -67.76136445526639 9.155971272285852
  endloop
endfacet
facet normal -0.8506508083520418 -0.5257311121191309 0.0
  outer loop
    vertex 3.7041328095653476 -67.76136445526639 -0.8440287277141301
    vertex 2.9866803051261 -66.60050191776995 9.155971272285852
    vertex 2.9866803051261 -66.60050191776995 -0.8440287277141301
  endloop
endfacet
facet normal 0.9959593139531115 -0.0898055953159247 0.0
  outer loop
    vertex 98.09173103114465 -63.637124178721045 -0.8440287277141301
    vertex 98.05730284001379 -64.01893866921816 9.155971272285852
    vertex 98.05730284001379 -64.01893866921816 -0.8440287277141301
  endloop
endfacet
facet normal 0.9959593139531115 -0.0898055953159247 0.0
  outer loop
    vertex 98.05730284001379 -64.01893866921816 9.155971272285852
    vertex 98.09173103114465 -63.637124178721045 -0.8440287277141301
    vertex 98.09173103114465 -63.637124178721045 9.155971272285852
  endloop
endfacet
facet normal 0.0 1.0 0.0
  outer loop
    vertex 77.59173103114465 -61.297949871012776 9.155971272285852
    vertex 98.09173103114465 -61.297949871012776 -0.8440287277141301
    vertex 77.59173103114465 -61.297949871012776 -0.8440287277141301
  endloop
endfacet
facet normal 0.0 1.0 0.0
  outer loop
    vertex 98.09173103114465 -61.297949871012776 -0.8440287277141301
    vertex 77.59173103114465 -61.297949871012776 9.155971272285852
    vertex 98.09173103114465 -61.297949871012776 9.155971272285852
  endloop
endfacet
facet normal 0.650409605177363 -0.7595836658940389 0.0
  outer loop
    vertex 95.59173103114468 -68.79794987101283 9.155971272285852
    vertex 94.55514561539829 -69.68554809259211 -0.8440287277141301
    vertex 95.59173103114468 -68.79794987101283 -0.8440287277141301
  endloop
endfacet
facet normal 0.650409605177363 -0.7595836658940389 0.0
  outer loop
    vertex 94.55514561539829 -69.68554809259211 -0.8440287277141301
    vertex 95.59173103114468 -68.79794987101283 9.155971272285852
    vertex 94.55514561539829 -69.68554809259211 9.155971272285852
  endloop
endfacet
facet normal -0.9959593139531124 -0.08980559531591423 0.0
  outer loop
    vertex 2.091731031144629 -63.63712417872099 9.155971272285852
    vertex 2.1261592222754913 -64.01893866921816 -0.8440287277141301
    vertex 2.1261592222754913 -64.01893866921816 9.155971272285852
  endloop
endfacet
facet normal -0.9959593139531124 -0.08980559531591423 0.0
  outer loop
    vertex 2.1261592222754913 -64.01893866921816 -0.8440287277141301
    vertex 2.091731031144629 -63.63712417872099 9.155971272285852
    vertex 2.091731031144629 -63.63712417872099 -0.8440287277141301
  endloop
endfacet
facet normal -1.0 0.0 0.0
  outer loop
    vertex 77.59173103114465 -61.297949871012776 9.155971272285852
    vertex 77.59173103114465 -63.79794987101277 -0.8440287277141357
    vertex 77.59173103114465 -63.79794987101277 9.155971272285852
  endloop
endfacet
facet normal -1.0 0.0 0.0
  outer loop
    vertex 77.59173103114465 -63.79794987101277 -0.8440287277141357
    vertex 77.59173103114465 -61.297949871012776 9.155971272285852
    vertex 77.59173103114465 -61.297949871012776 -0.8440287277141301
  endloop
endfacet
facet normal 1.0 0.0 0.0
  outer loop
    vertex 14.091731031144624 -69.29794987101289 -0.8440287277141301
    vertex 14.091731031144624 -71.29794987101289 9.155971272285852
    vertex 14.091731031144624 -71.29794987101289 -0.8440287277141301
  endloop
endfacet
facet normal 1.0 0.0 0.0
  outer loop
    vertex 14.091731031144624 -71.29794987101289 9.155971272285852
    vertex 14.091731031144624 -69.29794987101289 -0.8440287277141301
    vertex 14.091731031144624 -69.29794987101289 9.155971272285852
  endloop
endfacet
facet normal 0.38852026653595345 -0.9214401784656624 0.0
  outer loop
    vertex 93.39428307790186 -70.40300059703138 9.155971272285852
    vertex 92.1368160030194 -70.93320478663708 -0.8440287277141301
    vertex 93.39428307790186 -70.40300059703138 -0.8440287277141301
  endloop
endfacet
facet normal 0.38852026653595345 -0.9214401784656624 0.0
  outer loop
    vertex 92.1368160030194 -70.93320478663708 -0.8440287277141301
    vertex 93.39428307790186 -70.40300059703138 9.155971272285852
    vertex 92.1368160030194 -70.93320478663708 9.155971272285852
  endloop
endfacet
facet normal -0.388520266535946 -0.9214401784656657 0.0
  outer loop
    vertex 8.046646059269902 -70.93320478663699 9.155971272285852
    vertex 6.789178984387463 -70.40300059703131 -0.8440287277141301
    vertex 8.046646059269902 -70.93320478663699 -0.8440287277141301
  endloop
endfacet
facet normal -0.388520266535946 -0.9214401784656657 0.0
  outer loop
    vertex 6.789178984387463 -70.40300059703131 -0.8440287277141301
    vertex 8.046646059269902 -70.93320478663699 9.155971272285852
    vertex 6.789178984387463 -70.40300059703131 9.155971272285852
  endloop
endfacet
facet normal 0.850650808352044 -0.5257311121191274 0.0
  outer loop
    vertex 97.19678175716321 -66.60050191776999 -0.8440287277141301
    vertex 96.47932925272396 -67.76136445526645 9.155971272285852
    vertex 96.47932925272396 -67.76136445526645 -0.8440287277141301
  endloop
endfacet
facet normal 0.850650808352044 -0.5257311121191274 0.0
  outer loop
    vertex 96.47932925272396 -67.76136445526645 9.155971272285852
    vertex 97.19678175716321 -66.60050191776999 -0.8440287277141301
    vertex 97.19678175716321 -66.60050191776999 9.155971272285852
  endloop
endfacet
facet normal 0.9702643026941036 -0.24204789385062853 0.0
  outer loop
    vertex 98.05730284001379 -64.01893866921816 -0.8440287277141301
    vertex 97.72698594676889 -65.34303484288753 9.155971272285852
    vertex 97.72698594676889 -65.34303484288753 -0.8440287277141301
  endloop
endfacet
facet normal 0.9702643026941036 -0.24204789385062853 0.0
  outer loop
    vertex 97.72698594676889 -65.34303484288753 9.155971272285852
    vertex 98.05730284001379 -64.01893866921816 -0.8440287277141301
    vertex 98.05730284001379 -64.01893866921816 9.155971272285852
  endloop
endfacet
facet normal 0.24204789385064798 -0.9702643026940988 0.0
  outer loop
    vertex 92.1368160030194 -70.93320478663708 9.155971272285852
    vertex 90.81271982935006 -71.263521679882 -0.8440287277141301
    vertex 92.1368160030194 -70.93320478663708 -0.8440287277141301
  endloop
endfacet
facet normal 0.24204789385064798 -0.9702643026940988 0.0
  outer loop
    vertex 90.81271982935006 -71.263521679882 -0.8440287277141301
    vertex 92.1368160030194 -70.93320478663708 9.155971272285852
    vertex 90.81271982935006 -71.263521679882 9.155971272285852
  endloop
endfacet
facet normal -1.0 0.0 0.0
  outer loop
    vertex 27.591731031144644 -61.297949871012776 9.155971272285852
    vertex 27.591731031144644 -63.797949871012804 -0.8440287277141287
    vertex 27.591731031144644 -63.797949871012804 9.155971272285852
  endloop
endfacet
facet normal -1.0 0.0 0.0
  outer loop
    vertex 27.591731031144644 -63.797949871012804 -0.8440287277141287
    vertex 27.591731031144644 -61.297949871012776 9.155971272285852
    vertex 27.591731031144644 -61.297949871012776 -0.8440287277141301
  endloop
endfacet
facet normal -0.08980559531596206 -0.9959593139531082 0.0
  outer loop
    vertex 9.752556723436472 -71.29794987101278 9.155971272285852
    vertex 9.37074223293926 -71.26352167988189 -0.8440287277141301
    vertex 9.752556723436472 -71.29794987101278 -0.8440287277141301
  endloop
endfacet
facet normal -0.08980559531596206 -0.9959593139531082 0.0
  outer loop
    vertex 9.37074223293926 -71.26352167988189 -0.8440287277141301
    vertex 9.752556723436472 -71.29794987101278 9.155971272285852
    vertex 9.37074223293926 -71.26352167988189 9.155971272285852
  endloop
endfacet
facet normal 0.0 -1.0 0.0
  outer loop
    vertex 20.09173103114461 -69.29794987101289 9.155971272285852
    vertex 14.091731031144624 -69.29794987101289 -0.8440287277141301
    vertex 20.09173103114461 -69.29794987101289 -0.8440287277141301
  endloop
endfacet
facet normal 0.0 -1.0 0.0
  outer loop
    vertex 14.091731031144624 -69.29794987101289 -0.8440287277141301
    vertex 20.09173103114461 -69.29794987101289 9.155971272285852
    vertex 14.091731031144624 -69.29794987101289 9.155971272285852
  endloop
endfacet
facet normal -1.0 0.0 0.0
  outer loop
    vertex 86.09173103114468 -69.29794987101289 9.155971272285852
    vertex 86.09173103114468 -71.29794987101289 -0.8440287277141301
    vertex 86.09173103114468 -71.29794987101289 9.155971272285852
  endloop
endfacet
facet normal -1.0 0.0 0.0
  outer loop
    vertex 86.09173103114468 -71.29794987101289 -0.8440287277141301
    vertex 86.09173103114468 -69.29794987101289 9.155971272285852
    vertex 86.09173103114468 -69.29794987101289 -0.8440287277141301
  endloop
endfacet
facet normal 0.0 1.0 0.0
  outer loop
    vertex 27.591731031144644 -61.297949871012776 9.155971272285852
    vertex 72.5917310311447 -61.297949871012776 -0.8440287277141301
    vertex 27.591731031144644 -61.297949871012776 -0.8440287277141301
  endloop
endfacet
facet normal 0.0 1.0 0.0
  outer loop
    vertex 72.5917310311447 -61.297949871012776 -0.8440287277141301
    vertex 27.591731031144644 -61.297949871012776 9.155971272285852
    vertex 72.5917310311447 -61.297949871012776 9.155971272285852
  endloop
endfacet
facet normal 0.0 -1.0 0.0
  outer loop
    vertex 90.43090533885263 -71.29794987101289 9.155971272285852
    vertex 86.09173103114468 -71.29794987101289 -0.8440287277141301
    vertex 90.43090533885263 -71.29794987101289 -0.8440287277141301
  endloop
endfacet
facet normal 0.0 -1.0 0.0
  outer loop
    vertex 86.09173103114468 -71.29794987101289 -0.8440287277141301
    vertex 90.43090533885263 -71.29794987101289 9.155971272285852
    vertex 86.09173103114468 -71.29794987101289 9.155971272285852
  endloop
endfacet
facet normal 1.0 0.0 0.0
  outer loop
    vertex 72.5917310311447 -61.297949871012776 -0.8440287277141301
    vertex 72.5917310311447 -63.79794987101277 9.155971272285852
    vertex 72.5917310311447 -63.79794987101277 -0.844028727714133
  endloop
endfacet
facet normal 1.0 0.0 0.0
  outer loop
    vertex 72.5917310311447 -63.79794987101277 9.155971272285852
    vertex 72.5917310311447 -61.297949871012776 -0.8440287277141301
    vertex 72.5917310311447 -61.297949871012776 9.155971272285852
  endloop
endfacet
facet normal -0.9702643026940991 -0.24204789385064598 0.0
  outer loop
    vertex 2.1261592222754913 -64.01893866921816 9.155971272285852
    vertex 2.456476115520416 -65.3430348428875 -0.8440287277141301
    vertex 2.456476115520416 -65.3430348428875 9.155971272285852
  endloop
endfacet
facet normal -0.9702643026940991 -0.24204789385064598 0.0
  outer loop
    vertex 2.456476115520416 -65.3430348428875 -0.8440287277141301
    vertex 2.1261592222754913 -64.01893866921816 9.155971272285852
    vertex 2.1261592222754913 -64.01893866921816 -0.8440287277141301
  endloop
endfacet
facet normal -1.965038311584843e-14 -1.0 5.069980851120396e-15
  outer loop
    vertex 14.091731031144624 -71.29794987101289 9.155971272285852
    vertex 9.752556723436472 -71.29794987101278 -0.8440287277141301
    vertex 14.091731031144624 -71.29794987101289 -0.8440287277141301
  endloop
endfacet
facet normal -1.965038311584843e-14 -1.0 5.069980851120396e-15
  outer loop
    vertex 9.752556723436472 -71.29794987101278 -0.8440287277141301
    vertex 14.091731031144624 -71.29794987101289 9.155971272285852
    vertex 9.752556723436472 -71.29794987101278 9.155971272285852
  endloop
endfacet
facet normal 2.182412841764406e-15 -2.1824128417644087e-15 -1.0
  outer loop
    vertex 75.73877864390096 -66.21276443673541 -0.8440287277141357
    vertex 77.59173103114465 -66.29794987101276 -0.8440287277141301
    vertex 75.09173103114468 -66.29794987101275 -0.8440287277141357
  endloop
endfacet
facet normal 2.182412841764406e-15 -2.1824128417644087e-15 -1.0
  outer loop
    vertex 77.59173103114465 -66.29794987101276 -0.8440287277141301
    vertex 75.73877864390096 -66.21276443673541 -0.8440287277141357
    vertex 76.34173103114466 -65.96301338047384 -0.8440287277141357
  endloop
endfacet
facet normal 2.182412841764406e-15 -2.1824128417644087e-15 -1.0
  outer loop
    vertex 77.59173103114465 -66.29794987101276 -0.8440287277141301
    vertex 76.34173103114466 -65.96301338047384 -0.8440287277141357
    vertex 76.85949798411102 -65.56571682397912 -0.8440287277141357
  endloop
endfacet
facet normal 2.182412841764406e-15 -2.1824128417644087e-15 -1.0
  outer loop
    vertex 77.59173103114465 -66.29794987101276 -0.8440287277141301
    vertex 76.85949798411102 -65.56571682397912 -0.8440287277141357
    vertex 77.25679454060572 -65.04794987101276 -0.8440287277141357
  endloop
endfacet
facet normal 2.182412841764406e-15 -2.1824128417644087e-15 -1.0
  outer loop
    vertex 77.59173103114465 -66.29794987101276 -0.8440287277141301
    vertex 77.25679454060572 -65.04794987101276 -0.8440287277141357
    vertex 77.50654559686731 -64.44499748376906 -0.8440287277141357
  endloop
endfacet
facet normal 2.182412841764406e-15 -2.1824128417644087e-15 -1.0
  outer loop
    vertex 77.59173103114465 -66.29794987101276 -0.8440287277141301
    vertex 77.50654559686731 -64.44499748376906 -0.8440287277141357
    vertex 77.59173103114465 -63.79794987101277 -0.8440287277141357
  endloop
endfacet
facet normal -0.793353340291237 0.6087614290087184 0.0
  outer loop
    vertex 77.25679454060572 -65.04794987101276 9.155971272285852
    vertex 76.85949798411102 -65.56571682397912 -0.8440287277141357
    vertex 76.85949798411102 -65.56571682397912 9.155971272285852
  endloop
endfacet
facet normal -0.793353340291237 0.6087614290087184 0.0
  outer loop
    vertex 76.85949798411102 -65.56571682397912 -0.8440287277141357
    vertex 77.25679454060572 -65.04794987101276 9.155971272285852
    vertex 77.25679454060572 -65.04794987101276 -0.8440287277141357
  endloop
endfacet
facet normal -4.335286656744236e-32 -6.514400551108532e-16 -1.0
  outer loop
    vertex 75.09173103114468 -66.29794987101275 -0.8440287277141357
    vertex 72.67691646542202 -66.9449974837691 -0.8440287277141301
    vertex 72.5917310311447 -66.29794987101276 -0.8440287277141301
  endloop
endfacet
facet normal -4.335286656744236e-32 -6.514400551108532e-16 -1.0
  outer loop
    vertex 72.67691646542202 -66.9449974837691 -0.8440287277141301
    vertex 75.09173103114468 -66.29794987101275 -0.8440287277141357
    vertex 72.92666752168351 -67.54794987101289 -0.8440287277141301
  endloop
endfacet
facet normal -4.335286656744236e-32 -6.514400551108532e-16 -1.0
  outer loop
    vertex 72.92666752168351 -67.54794987101289 -0.8440287277141301
    vertex 75.09173103114468 -66.29794987101275 -0.8440287277141357
    vertex 73.32396407817828 -68.0657168239792 -0.8440287277141301
  endloop
endfacet
facet normal -4.335286656744236e-32 -6.514400551108532e-16 -1.0
  outer loop
    vertex 73.32396407817828 -68.0657168239792 -0.8440287277141301
    vertex 75.09173103114468 -66.29794987101275 -0.8440287277141357
    vertex 73.84173103114458 -68.46301338047397 -0.8440287277141301
  endloop
endfacet
facet normal -4.335286656744236e-32 -6.514400551108532e-16 -1.0
  outer loop
    vertex 73.84173103114458 -68.46301338047397 -0.8440287277141301
    vertex 75.09173103114468 -66.29794987101275 -0.8440287277141357
    vertex 74.44468341838822 -68.71276443673554 -0.8440287277141301
  endloop
endfacet
facet normal -4.335286656744236e-32 -6.514400551108532e-16 -1.0
  outer loop
    vertex 74.44468341838822 -68.71276443673554 -0.8440287277141301
    vertex 75.09173103114468 -66.29794987101275 -0.8440287277141357
    vertex 75.09173103114468 -68.79794987101288 -0.8440287277141301
  endloop
endfacet
facet normal -4.335286656744236e-32 -6.514400551108532e-16 -1.0
  outer loop
    vertex 75.09173103114468 -68.79794987101288 -0.8440287277141301
    vertex 75.09173103114468 -66.29794987101275 -0.8440287277141357
    vertex 77.59173103114465 -66.29794987101276 -0.8440287277141301
  endloop
endfacet
facet normal -4.335286656744236e-32 -6.514400551108532e-16 -1.0
  outer loop
    vertex 75.09173103114468 -68.79794987101288 -0.8440287277141301
    vertex 77.59173103114465 -66.29794987101276 -0.8440287277141301
    vertex 75.73877864390091 -68.71276443673554 -0.8440287277141301
  endloop
endfacet
facet normal -4.335286656744236e-32 -6.514400551108532e-16 -1.0
  outer loop
    vertex 75.73877864390091 -68.71276443673554 -0.8440287277141301
    vertex 77.59173103114465 -66.29794987101276 -0.8440287277141301
    vertex 76.34173103114456 -68.46301338047397 -0.8440287277141301
  endloop
endfacet
facet normal -4.335286656744236e-32 -6.514400551108532e-16 -1.0
  outer loop
    vertex 76.34173103114456 -68.46301338047397 -0.8440287277141301
    vertex 77.59173103114465 -66.29794987101276 -0.8440287277141301
    vertex 76.85949798411106 -68.0657168239792 -0.8440287277141301
  endloop
endfacet
facet normal -4.335286656744236e-32 -6.514400551108532e-16 -1.0
  outer loop
    vertex 76.85949798411106 -68.0657168239792 -0.8440287277141301
    vertex 77.59173103114465 -66.29794987101276 -0.8440287277141301
    vertex 77.25679454060564 -67.54794987101289 -0.8440287277141301
  endloop
endfacet
facet normal -4.335286656744236e-32 -6.514400551108532e-16 -1.0
  outer loop
    vertex 77.25679454060564 -67.54794987101289 -0.8440287277141301
    vertex 77.59173103114465 -66.29794987101276 -0.8440287277141301
    vertex 77.50654559686731 -66.9449974837691 -0.8440287277141301
  endloop
endfacet
facet normal -0.9914448613738096 0.13052619222005835 0.0
  outer loop
    vertex 77.59173103114465 -63.79794987101277 9.155971272285852
    vertex 77.50654559686731 -64.44499748376906 -0.8440287277141357
    vertex 77.50654559686731 -64.44499748376906 9.155971272285852
  endloop
endfacet
facet normal -0.9914448613738096 0.13052619222005835 0.0
  outer loop
    vertex 77.50654559686731 -64.44499748376906 -0.8440287277141357
    vertex 77.59173103114465 -63.79794987101277 9.155971272285852
    vertex 77.59173103114465 -63.79794987101277 -0.8440287277141357
  endloop
endfacet
facet normal -0.9238795325112896 0.38268343236508284 0.0
  outer loop
    vertex 77.50654559686731 -64.44499748376906 9.155971272285852
    vertex 77.25679454060572 -65.04794987101276 -0.8440287277141357
    vertex 77.25679454060572 -65.04794987101276 9.155971272285852
  endloop
endfacet
facet normal -0.9238795325112896 0.38268343236508284 0.0
  outer loop
    vertex 77.25679454060572 -65.04794987101276 -0.8440287277141357
    vertex 77.50654559686731 -64.44499748376906 9.155971272285852
    vertex 77.50654559686731 -64.44499748376906 -0.8440287277141357
  endloop
endfacet
facet normal 0.793353340291237 0.6087614290087184 0.0
  outer loop
    vertex 72.92666752168358 -65.04794987101276 -0.844028727714133
    vertex 73.32396407817832 -65.56571682397912 9.155971272285852
    vertex 73.32396407817832 -65.56571682397912 -0.844028727714133
  endloop
endfacet
facet normal 0.793353340291237 0.6087614290087184 0.0
  outer loop
    vertex 73.32396407817832 -65.56571682397912 9.155971272285852
    vertex 72.92666752168358 -65.04794987101276 -0.844028727714133
    vertex 72.92666752168358 -65.04794987101276 9.155971272285852
  endloop
endfacet
facet normal -1.9604985116302084e-15 -1.2701655066791558e-15 -1.0
  outer loop
    vertex 72.67691646542202 -64.44499748376906 -0.844028727714133
    vertex 72.5917310311447 -66.29794987101276 -0.8440287277141301
    vertex 72.5917310311447 -63.79794987101277 -0.844028727714133
  endloop
endfacet
facet normal -1.9604985116302084e-15 -1.2701655066791558e-15 -1.0
  outer loop
    vertex 72.5917310311447 -66.29794987101276 -0.8440287277141301
    vertex 72.67691646542202 -64.44499748376906 -0.844028727714133
    vertex 72.92666752168358 -65.04794987101276 -0.844028727714133
  endloop
endfacet
facet normal -1.9604985116302084e-15 -1.2701655066791558e-15 -1.0
  outer loop
    vertex 72.5917310311447 -66.29794987101276 -0.8440287277141301
    vertex 72.92666752168358 -65.04794987101276 -0.844028727714133
    vertex 73.32396407817832 -65.56571682397912 -0.844028727714133
  endloop
endfacet
facet normal -1.9604985116302084e-15 -1.2701655066791558e-15 -1.0
  outer loop
    vertex 72.5917310311447 -66.29794987101276 -0.8440287277141301
    vertex 73.32396407817832 -65.56571682397912 -0.844028727714133
    vertex 73.84173103114469 -65.96301338047384 -0.844028727714133
  endloop
endfacet
facet normal -1.9604985116302084e-15 -1.2701655066791558e-15 -1.0
  outer loop
    vertex 72.5917310311447 -66.29794987101276 -0.8440287277141301
    vertex 73.84173103114469 -65.96301338047384 -0.844028727714133
    vertex 74.44468341838838 -66.21276443673541 -0.844028727714133
  endloop
endfacet
facet normal -1.9604985116302084e-15 -1.2701655066791558e-15 -1.0
  outer loop
    vertex 72.5917310311447 -66.29794987101276 -0.8440287277141301
    vertex 74.44468341838838 -66.21276443673541 -0.844028727714133
    vertex 75.09173103114468 -66.29794987101275 -0.8440287277141357
  endloop
endfacet
facet normal -0.38268343236508284 0.9238795325112896 0.0
  outer loop
    vertex 75.73877864390096 -66.21276443673541 9.155971272285852
    vertex 76.34173103114466 -65.96301338047384 -0.8440287277141357
    vertex 75.73877864390096 -66.21276443673541 -0.8440287277141357
  endloop
endfacet
facet normal -0.38268343236508284 0.9238795325112896 0.0
  outer loop
    vertex 76.34173103114466 -65.96301338047384 -0.8440287277141357
    vertex 75.73877864390096 -66.21276443673541 9.155971272285852
    vertex 76.34173103114466 -65.96301338047384 9.155971272285852
  endloop
endfacet
facet normal -0.13052619222005835 0.9914448613738096 0.0
  outer loop
    vertex 75.09173103114468 -66.29794987101275 9.155971272285852
    vertex 75.73877864390096 -66.21276443673541 -0.8440287277141357
    vertex 75.09173103114468 -66.29794987101275 -0.8440287277141357
  endloop
endfacet
facet normal -0.13052619222005835 0.9914448613738096 0.0
  outer loop
    vertex 75.73877864390096 -66.21276443673541 -0.8440287277141357
    vertex 75.09173103114468 -66.29794987101275 9.155971272285852
    vertex 75.73877864390096 -66.21276443673541 9.155971272285852
  endloop
endfacet
facet normal 0.13052619222005835 0.9914448613738096 7.381608045645803e-20
  outer loop
    vertex 74.44468341838838 -66.21276443673541 -0.844028727714133
    vertex 75.09173103114468 -66.29794987101275 9.155971272285852
    vertex 75.09173103114468 -66.29794987101275 -0.8440287277141357
  endloop
endfacet
facet normal 0.13052619222005835 0.9914448613738096 7.381608045645803e-20
  outer loop
    vertex 75.09173103114468 -66.29794987101275 9.155971272285852
    vertex 74.44468341838838 -66.21276443673541 -0.844028727714133
    vertex 74.44468341838838 -66.21276443673541 9.155971272285852
  endloop
endfacet
facet normal 0.6087614290087184 0.793353340291237 0.0
  outer loop
    vertex 73.32396407817832 -65.56571682397912 9.155971272285852
    vertex 73.84173103114469 -65.96301338047384 -0.844028727714133
    vertex 73.32396407817832 -65.56571682397912 -0.844028727714133
  endloop
endfacet
facet normal 0.6087614290087184 0.793353340291237 0.0
  outer loop
    vertex 73.84173103114469 -65.96301338047384 -0.844028727714133
    vertex 73.32396407817832 -65.56571682397912 9.155971272285852
    vertex 73.84173103114469 -65.96301338047384 9.155971272285852
  endloop
endfacet
facet normal 0.9238795325112896 0.38268343236508284 0.0
  outer loop
    vertex 72.67691646542202 -64.44499748376906 -0.844028727714133
    vertex 72.92666752168358 -65.04794987101276 9.155971272285852
    vertex 72.92666752168358 -65.04794987101276 -0.844028727714133
  endloop
endfacet
facet normal 0.9238795325112896 0.38268343236508284 0.0
  outer loop
    vertex 72.92666752168358 -65.04794987101276 9.155971272285852
    vertex 72.67691646542202 -64.44499748376906 -0.844028727714133
    vertex 72.67691646542202 -64.44499748376906 9.155971272285852
  endloop
endfacet
facet normal 0.38268343236508284 0.9238795325112896 0.0
  outer loop
    vertex 73.84173103114469 -65.96301338047384 9.155971272285852
    vertex 74.44468341838838 -66.21276443673541 -0.844028727714133
    vertex 73.84173103114469 -65.96301338047384 -0.844028727714133
  endloop
endfacet
facet normal 0.38268343236508284 0.9238795325112896 0.0
  outer loop
    vertex 74.44468341838838 -66.21276443673541 -0.844028727714133
    vertex 73.84173103114469 -65.96301338047384 9.155971272285852
    vertex 74.44468341838838 -66.21276443673541 9.155971272285852
  endloop
endfacet
facet normal -0.6087614290087184 0.793353340291237 0.0
  outer loop
    vertex 76.34173103114466 -65.96301338047384 9.155971272285852
    vertex 76.85949798411102 -65.56571682397912 -0.8440287277141357
    vertex 76.34173103114466 -65.96301338047384 -0.8440287277141357
  endloop
endfacet
facet normal -0.6087614290087184 0.793353340291237 0.0
  outer loop
    vertex 76.85949798411102 -65.56571682397912 -0.8440287277141357
    vertex 76.34173103114466 -65.96301338047384 9.155971272285852
    vertex 76.85949798411102 -65.56571682397912 9.155971272285852
  endloop
endfacet
facet normal 0.9914448613738096 0.13052619222005835 0.0
  outer loop
    vertex 72.5917310311447 -63.79794987101277 -0.844028727714133
    vertex 72.67691646542202 -64.44499748376906 9.155971272285852
    vertex 72.67691646542202 -64.44499748376906 -0.844028727714133
  endloop
endfacet
facet normal 0.9914448613738096 0.13052619222005835 0.0
  outer loop
    vertex 72.67691646542202 -64.44499748376906 9.155971272285852
    vertex 72.5917310311447 -63.79794987101277 -0.844028727714133
    vertex 72.5917310311447 -63.79794987101277 9.155971272285852
  endloop
endfacet
facet normal -4.033450846435001e-25 1.628600128393783e-16 -1.0
  outer loop
    vertex 25.091731049771084 -66.29794987101282 -0.8440287277141287
    vertex 22.67691646622543 -66.94499748676776 -0.8440287277141301
    vertex 22.59173103114462 -66.29794987101283 -0.8440287277141301
  endloop
endfacet
facet normal -4.033450846435001e-25 1.628600128393783e-16 -1.0
  outer loop
    vertex 22.67691646622543 -66.94499748676776 -0.8440287277141301
    vertex 25.091731049771084 -66.29794987101282 -0.8440287277141287
    vertex 22.92666752478793 -67.54794987638984 -0.8440287277141301
  endloop
endfacet
facet normal -4.033450846435001e-25 1.628600128393783e-16 -1.0
  outer loop
    vertex 22.92666752478793 -67.54794987638984 -0.8440287277141301
    vertex 25.091731049771084 -66.29794987101282 -0.8440287277141287
    vertex 23.3239640847637 -68.06571683056467 -0.8440287277141301
  endloop
endfacet
facet normal -4.033450846435001e-25 1.628600128393783e-16 -1.0
  outer loop
    vertex 23.3239640847637 -68.06571683056467 -0.8440287277141301
    vertex 25.091731049771084 -66.29794987101282 -0.8440287277141287
    vertex 23.841731041898605 -68.46301338668276 -0.8440287277141301
  endloop
endfacet
facet normal -4.033450846435001e-25 1.628600128393783e-16 -1.0
  outer loop
    vertex 23.841731041898605 -68.46301338668276 -0.8440287277141301
    vertex 25.091731049771084 -66.29794987101282 -0.8440287277141287
    vertex 24.444683433381456 -68.7127644407529 -0.8440287277141301
  endloop
endfacet
facet normal -4.033450846435001e-25 1.628600128393783e-16 -1.0
  outer loop
    vertex 24.444683433381456 -68.7127644407529 -0.8440287277141301
    vertex 25.091731049771084 -66.29794987101282 -0.8440287277141287
    vertex 25.09173104977108 -68.79794987101285 -0.8440287277141301
  endloop
endfacet
facet normal -4.033450846435001e-25 1.628600128393783e-16 -1.0
  outer loop
    vertex 25.09173104977108 -68.79794987101285 -0.8440287277141301
    vertex 25.091731049771084 -66.29794987101282 -0.8440287277141287
    vertex 25.73877866489133 -68.71276443111115 -0.8440287277141301
  endloop
endfacet
facet normal -4.033450846435001e-25 1.628600128393783e-16 -1.0
  outer loop
    vertex 25.73877866489133 -68.71276443111115 -0.8440287277141301
    vertex 25.091731049771084 -66.29794987101282 -0.8440287277141287
    vertex 27.591731031144644 -66.29794987101283 -0.8440287277141301
  endloop
endfacet
facet normal -4.033450846435001e-25 1.628600128393783e-16 -1.0
  outer loop
    vertex 25.73877866489133 -68.71276443111115 -0.8440287277141301
    vertex 27.591731031144644 -66.29794987101283 -0.8440287277141301
    vertex 26.34173105265261 -68.46301336805632 -0.8440287277141301
  endloop
endfacet
facet normal -4.033450846435001e-25 1.628600128393783e-16 -1.0
  outer loop
    vertex 26.34173105265261 -68.46301336805632 -0.8440287277141301
    vertex 27.591731031144644 -66.29794987101283 -0.8440287277141301
    vertex 26.859498003867348 -68.06571680422289 -0.8440287277141301
  endloop
endfacet
facet normal -4.033450846435001e-25 1.628600128393783e-16 -1.0
  outer loop
    vertex 26.859498003867348 -68.06571680422289 -0.8440287277141301
    vertex 27.591731031144644 -66.29794987101283 -0.8440287277141301
    vertex 27.256794556127787 -67.54794984412787 -0.8440287277141301
  endloop
endfacet
facet normal -4.033450846435001e-25 1.628600128393783e-16 -1.0
  outer loop
    vertex 27.256794556127787 -67.54794984412787 -0.8440287277141301
    vertex 27.591731031144644 -66.29794987101283 -0.8440287277141301
    vertex 27.506545605705593 -66.94499745078423 -0.8440287277141301
  endloop
endfacet
facet normal -0.9238795332240916 0.3826834306442269 0.0
  outer loop
    vertex 27.506545597670794 -64.44499748077048 9.155971272285852
    vertex 27.25679454371015 -65.04794986563581 -0.8440287277141287
    vertex 27.25679454371015 -65.04794986563581 9.155971272285852
  endloop
endfacet
facet normal -0.9238795332240916 0.3826834306442269 0.0
  outer loop
    vertex 27.25679454371015 -65.04794986563581 -0.8440287277141287
    vertex 27.506545597670794 -64.44499748077048 9.155971272285852
    vertex 27.506545597670794 -64.44499748077048 -0.8440287277141287
  endloop
endfacet
facet normal -0.3826834375276636 0.9238795303728787 0.0
  outer loop
    vertex 25.73877865889408 -66.21276443271809 9.155971272285852
    vertex 26.341731041898623 -65.9630133742651 -0.8440287277141287
    vertex 25.73877865889408 -66.21276443271809 -0.8440287277141287
  endloop
endfacet
facet normal -0.3826834375276636 0.9238795303728787 0.0
  outer loop
    vertex 26.341731041898623 -65.9630133742651 -0.8440287277141287
    vertex 25.73877865889408 -66.21276443271809 9.155971272285852
    vertex 26.341731041898623 -65.9630133742651 9.155971272285852
  endloop
endfacet
facet normal -5.456032152562638e-16 5.456032117608221e-16 -1.0
  outer loop
    vertex 25.73877865889408 -66.21276443271809 -0.8440287277141287
    vertex 27.591731031144644 -66.29794987101283 -0.8440287277141301
    vertex 25.091731049771084 -66.29794987101282 -0.8440287277141287
  endloop
endfacet
facet normal -5.456032152562638e-16 5.456032117608221e-16 -1.0
  outer loop
    vertex 27.591731031144644 -66.29794987101283 -0.8440287277141301
    vertex 25.73877865889408 -66.21276443271809 -0.8440287277141287
    vertex 26.341731041898623 -65.9630133742651 -0.8440287277141287
  endloop
endfacet
facet normal -5.456032152562638e-16 5.456032117608221e-16 -1.0
  outer loop
    vertex 27.591731031144644 -66.29794987101283 -0.8440287277141301
    vertex 26.341731041898623 -65.9630133742651 -0.8440287277141287
    vertex 26.859497990696457 -65.56571681739374 -0.8440287277141287
  endloop
endfacet
facet normal -5.456032152562638e-16 5.456032117608221e-16 -1.0
  outer loop
    vertex 27.591731031144644 -66.29794987101283 -0.8440287277141301
    vertex 26.859497990696457 -65.56571681739374 -0.8440287277141287
    vertex 27.25679454371015 -65.04794986563581 -0.8440287277141287
  endloop
endfacet
facet normal -5.456032152562638e-16 5.456032117608221e-16 -1.0
  outer loop
    vertex 27.591731031144644 -66.29794987101283 -0.8440287277141301
    vertex 27.25679454371015 -65.04794986563581 -0.8440287277141287
    vertex 27.506545597670794 -64.44499748077048 -0.8440287277141287
  endloop
endfacet
facet normal -5.456032152562638e-16 5.456032117608221e-16 -1.0
  outer loop
    vertex 27.591731031144644 -66.29794987101283 -0.8440287277141301
    vertex 27.506545597670794 -64.44499748077048 -0.8440287277141287
    vertex 27.591731031144644 -63.797949871012804 -0.8440287277141287
  endloop
endfacet
facet normal -0.9914448614548514 0.13052619160448348 7.8841786961675e-32
  outer loop
    vertex 27.591731031144644 -63.797949871012804 9.155971272285852
    vertex 27.506545597670794 -64.44499748077048 -0.8440287277141287
    vertex 27.506545597670794 -64.44499748077048 9.155971272285852
  endloop
endfacet
facet normal -0.9914448614548514 0.13052619160448348 7.8841786961675e-32
  outer loop
    vertex 27.506545597670794 -64.44499748077048 -0.8440287277141287
    vertex 27.591731031144644 -63.797949871012804 9.155971272285852
    vertex 27.591731031144644 -63.797949871012804 -0.8440287277141287
  endloop
endfacet
facet normal -0.7933533421810788 0.6087614265458287 0.0
  outer loop
    vertex 27.25679454371015 -65.04794986563581 9.155971272285852
    vertex 26.859497990696457 -65.56571681739374 -0.8440287277141287
    vertex 26.859497990696457 -65.56571681739374 9.155971272285852
  endloop
endfacet
facet normal -0.7933533421810788 0.6087614265458287 0.0
  outer loop
    vertex 26.859497990696457 -65.56571681739374 -0.8440287277141287
    vertex 27.25679454371015 -65.04794986563581 9.155971272285852
    vertex 27.25679454371015 -65.04794986563581 -0.8440287277141287
  endloop
endfacet
facet normal -0.13052619899132928 0.9914448604823548 -7.119537308433891e-19
  outer loop
    vertex 25.091731049771084 -66.29794987101282 9.155971272285852
    vertex 25.73877865889408 -66.21276443271809 -0.8440287277141287
    vertex 25.091731049771084 -66.29794987101282 -0.8440287277141287
  endloop
endfacet
facet normal -0.13052619899132928 0.9914448604823548 -7.119537308433891e-19
  outer loop
    vertex 25.73877865889408 -66.21276443271809 -0.8440287277141287
    vertex 25.091731049771084 -66.29794987101282 9.155971272285852
    vertex 25.73877865889408 -66.21276443271809 9.155971272285852
  endloop
endfacet
facet normal -0.6087614324567778 0.7933533376454479 0.0
  outer loop
    vertex 26.341731041898623 -65.9630133742651 9.155971272285852
    vertex 26.859497990696457 -65.56571681739374 -0.8440287277141287
    vertex 26.341731041898623 -65.9630133742651 -0.8440287277141287
  endloop
endfacet
facet normal -0.6087614324567778 0.7933533376454479 0.0
  outer loop
    vertex 26.859497990696457 -65.56571681739374 -0.8440287277141287
    vertex 26.341731041898623 -65.9630133742651 9.155971272285852
    vertex 26.859497990696457 -65.56571681739374 9.155971272285852
  endloop
endfacet
facet normal 0.13052618421765305 0.9914448624273462 -1.5768357407801965e-31
  outer loop
    vertex 24.444683439378725 -66.21276444235984 9.155971272285852
    vertex 25.091731049771084 -66.29794987101282 -0.8440287277141287
    vertex 24.444683439378725 -66.21276444235984 -0.8440287277141287
  endloop
endfacet
facet normal 0.13052618421765305 0.9914448624273462 -1.5768357407801965e-31
  outer loop
    vertex 25.091731049771084 -66.29794987101282 -0.8440287277141287
    vertex 24.444683439378725 -66.21276444235984 9.155971272285852
    vertex 25.091731049771084 -66.29794987101282 9.155971272285852
  endloop
endfacet
facet normal 0.9238795275216597 0.38268344441111496 0.0
  outer loop
    vertex 22.676916474260228 -64.44499751675403 -0.8440287277141287
    vertex 22.926667537205567 -65.04794989789778 9.155971272285852
    vertex 22.926667537205567 -65.04794989789778 -0.8440287277141287
  endloop
endfacet
facet normal 0.9238795275216597 0.38268344441111496 0.0
  outer loop
    vertex 22.926667537205567 -65.04794989789778 9.155971272285852
    vertex 22.676916474260228 -64.44499751675403 -0.8440287277141287
    vertex 22.676916474260228 -64.44499751675403 9.155971272285852
  endloop
endfacet
facet normal 0.99144485950986 0.13052620637815918 3.652039057752439e-19
  outer loop
    vertex 22.59173103114462 -63.797949908265714 -0.8440287277141287
    vertex 22.676916474260228 -64.44499751675403 9.155971272285852
    vertex 22.676916474260228 -64.44499751675403 -0.8440287277141287
  endloop
endfacet
facet normal 0.99144485950986 0.13052620637815918 3.652039057752439e-19
  outer loop
    vertex 22.676916474260228 -64.44499751675403 9.155971272285852
    vertex 22.59173103114462 -63.797949908265714 -0.8440287277141287
    vertex 22.59173103114462 -63.797949908265714 9.155971272285852
  endloop
endfacet
facet normal 0.7933533331098273 0.6087614383677136 0.0
  outer loop
    vertex 22.926667537205567 -65.04794989789778 -0.8440287277141287
    vertex 23.32396409793459 -65.56571684373552 9.155971272285852
    vertex 23.32396409793459 -65.56571684373552 -0.8440287277141287
  endloop
endfacet
facet normal 0.7933533331098273 0.6087614383677136 0.0
  outer loop
    vertex 23.32396409793459 -65.56571684373552 9.155971272285852
    vertex 22.926667537205567 -65.04794989789778 -0.8440287277141287
    vertex 22.926667537205567 -65.04794989789778 9.155971272285852
  endloop
endfacet
facet normal 5.45603208265382e-16 5.456032187517064e-16 -1.0
  outer loop
    vertex 22.676916474260228 -64.44499751675403 -0.8440287277141287
    vertex 22.59173103114462 -66.29794987101283 -0.8440287277141301
    vertex 22.59173103114462 -63.797949908265714 -0.8440287277141287
  endloop
endfacet
facet normal 5.45603208265382e-16 5.456032187517064e-16 -1.0
  outer loop
    vertex 22.59173103114462 -66.29794987101283 -0.8440287277141301
    vertex 22.676916474260228 -64.44499751675403 -0.8440287277141287
    vertex 22.926667537205567 -65.04794989789778 -0.8440287277141287
  endloop
endfacet
facet normal 5.45603208265382e-16 5.456032187517064e-16 -1.0
  outer loop
    vertex 22.59173103114462 -66.29794987101283 -0.8440287277141301
    vertex 22.926667537205567 -65.04794989789778 -0.8440287277141287
    vertex 23.32396409793459 -65.56571684373552 -0.8440287277141287
  endloop
endfacet
facet normal 5.45603208265382e-16 5.456032187517064e-16 -1.0
  outer loop
    vertex 22.59173103114462 -66.29794987101283 -0.8440287277141301
    vertex 23.32396409793459 -65.56571684373552 -0.8440287277141287
    vertex 23.8417310526526 -65.96301339289154 -0.8440287277141287
  endloop
endfacet
facet normal 5.45603208265382e-16 5.456032187517064e-16 -1.0
  outer loop
    vertex 22.59173103114462 -66.29794987101283 -0.8440287277141301
    vertex 23.8417310526526 -65.96301339289154 -0.8440287277141287
    vertex 24.444683439378725 -66.21276444235984 -0.8440287277141287
  endloop
endfacet
facet normal 5.45603208265382e-16 5.456032187517064e-16 -1.0
  outer loop
    vertex 22.59173103114462 -66.29794987101283 -0.8440287277141301
    vertex 24.444683439378725 -66.21276444235984 -0.8440287277141287
    vertex 25.091731049771084 -66.29794987101282 -0.8440287277141287
  endloop
endfacet
facet normal 0.6087614206348841 0.793353346716706 0.0
  outer loop
    vertex 23.32396409793459 -65.56571684373552 9.155971272285852
    vertex 23.8417310526526 -65.96301339289154 -0.8440287277141287
    vertex 23.32396409793459 -65.56571684373552 -0.8440287277141287
  endloop
endfacet
facet normal 0.6087614206348841 0.793353346716706 0.0
  outer loop
    vertex 23.8417310526526 -65.96301339289154 -0.8440287277141287
    vertex 23.32396409793459 -65.56571684373552 9.155971272285852
    vertex 23.8417310526526 -65.96301339289154 9.155971272285852
  endloop
endfacet
facet normal 0.3826834237607933 0.9238795360753032 0.0
  outer loop
    vertex 23.8417310526526 -65.96301339289154 9.155971272285852
    vertex 24.444683439378725 -66.21276444235984 -0.8440287277141287
    vertex 23.8417310526526 -65.96301339289154 -0.8440287277141287
  endloop
endfacet
facet normal 0.3826834237607933 0.9238795360753032 0.0
  outer loop
    vertex 24.444683439378725 -66.21276444235984 -0.8440287277141287
    vertex 23.8417310526526 -65.96301339289154 9.155971272285852
    vertex 24.444683439378725 -66.21276444235984 9.155971272285852
  endloop
endfacet
endsolid OpenROVNiskin
